G04 #@! TF.GenerationSoftware,KiCad,Pcbnew,(6.0.4)*
G04 #@! TF.CreationDate,2022-05-16T01:26:14+08:00*
G04 #@! TF.ProjectId,whale,7768616c-652e-46b6-9963-61645f706362,0.1*
G04 #@! TF.SameCoordinates,Original*
G04 #@! TF.FileFunction,Copper,L2,Bot*
G04 #@! TF.FilePolarity,Positive*
%FSLAX46Y46*%
G04 Gerber Fmt 4.6, Leading zero omitted, Abs format (unit mm)*
G04 Created by KiCad (PCBNEW (6.0.4)) date 2022-05-16 01:26:14*
%MOMM*%
%LPD*%
G01*
G04 APERTURE LIST*
G04 #@! TA.AperFunction,Profile*
%ADD10C,0.150000*%
G04 #@! TD*
G04 #@! TA.AperFunction,ComponentPad*
%ADD11O,1.000000X1.800000*%
G04 #@! TD*
G04 #@! TA.AperFunction,ComponentPad*
%ADD12O,1.000000X2.200000*%
G04 #@! TD*
G04 #@! TA.AperFunction,ComponentPad*
%ADD13C,1.700000*%
G04 #@! TD*
G04 #@! TA.AperFunction,ComponentPad*
%ADD14C,1.000000*%
G04 #@! TD*
G04 #@! TA.AperFunction,ViaPad*
%ADD15C,0.500000*%
G04 #@! TD*
G04 #@! TA.AperFunction,Conductor*
%ADD16C,0.310000*%
G04 #@! TD*
G04 #@! TA.AperFunction,Conductor*
%ADD17C,0.160000*%
G04 #@! TD*
G04 #@! TA.AperFunction,Conductor*
%ADD18C,0.152400*%
G04 #@! TD*
G04 APERTURE END LIST*
D10*
X30830000Y-22823554D02*
X30830000Y-29343554D01*
X27830000Y-55843554D02*
X43070000Y-55843554D01*
X26559946Y-54573554D02*
G75*
G03*
X27830000Y-55843554I1270054J54D01*
G01*
X26560000Y-24093554D02*
X26560000Y-54573554D01*
X30830000Y-29343554D02*
X40080000Y-29343554D01*
X27830000Y-22823554D02*
X30830000Y-22823554D01*
X40070000Y-22823554D02*
X43070000Y-22823554D01*
X43070000Y-55843500D02*
G75*
G03*
X44340000Y-54573554I100J1269900D01*
G01*
X40080000Y-29343554D02*
X40070000Y-22823554D01*
X44339946Y-24093554D02*
G75*
G03*
X43070000Y-22823554I-1269946J54D01*
G01*
X44340000Y-54573554D02*
X44340000Y-24093554D01*
X27830000Y-22823550D02*
G75*
G03*
X26560000Y-24093554I80J-1270080D01*
G01*
D11*
X29875000Y-28923554D03*
X41025000Y-28923554D03*
D12*
X29875000Y-24923554D03*
X41025000Y-24923554D03*
D13*
X40530000Y-54573554D03*
X37990000Y-54573554D03*
X35450000Y-54573554D03*
X32910000Y-54573554D03*
X30370000Y-54573554D03*
D14*
X34070000Y-33160000D03*
X36610000Y-33160000D03*
D13*
X27830000Y-54573554D03*
X27830000Y-52033554D03*
X27830000Y-49493554D03*
X27830000Y-46953554D03*
X27830000Y-44413554D03*
X27830000Y-41873554D03*
X27830000Y-39333554D03*
X27830000Y-36793554D03*
X27830000Y-34253554D03*
X27830000Y-31713554D03*
X27830000Y-29173554D03*
X27830000Y-26633554D03*
X43070000Y-26633554D03*
X43070000Y-29173554D03*
X43070000Y-31713554D03*
X43070000Y-34253554D03*
X43070000Y-36793554D03*
X43070000Y-39333554D03*
X43070000Y-41873554D03*
X43070000Y-44413554D03*
X43070000Y-46953554D03*
X43070000Y-49493554D03*
X43070000Y-52033554D03*
X43070000Y-54573554D03*
D11*
X32510000Y-35363554D03*
X39510000Y-35363554D03*
D15*
X38900000Y-48533554D03*
X41250000Y-37683554D03*
X41100000Y-42933554D03*
X41460500Y-35100000D03*
X36350000Y-39783554D03*
X32250000Y-40683554D03*
X34700000Y-49683554D03*
X34700000Y-51083554D03*
X29450000Y-49433554D03*
X29900000Y-27033554D03*
X40490000Y-35470000D03*
X38510000Y-31300000D03*
X29450000Y-48033554D03*
X36400000Y-51533554D03*
X38970000Y-33010000D03*
X41340000Y-33070000D03*
X33600000Y-50133554D03*
X29450000Y-46633554D03*
X37250000Y-50133554D03*
X33600000Y-48933554D03*
X29450000Y-50833554D03*
X32150000Y-36833554D03*
X32960000Y-33130000D03*
X28450000Y-45683554D03*
X38600000Y-51083554D03*
X35830000Y-35970000D03*
X29450000Y-52233554D03*
X30400000Y-35583554D03*
X41000000Y-27033554D03*
X31120000Y-31173554D03*
X36730000Y-31193554D03*
X33730000Y-31683554D03*
X31770000Y-31673554D03*
X39650000Y-37633554D03*
X31900000Y-42533554D03*
X32350000Y-42033554D03*
X31400000Y-43933554D03*
X30850000Y-44333554D03*
X40300000Y-51033554D03*
X36750000Y-38633554D03*
X31200000Y-41433554D03*
X40300000Y-47033554D03*
X31550000Y-40833554D03*
X38300000Y-48233554D03*
X33450000Y-47583554D03*
X33600000Y-48233554D03*
X34200000Y-48533554D03*
X29450000Y-31933554D03*
X34700000Y-48983554D03*
X41150000Y-43633554D03*
X40100000Y-38833554D03*
X41800000Y-43883554D03*
X40650000Y-38433554D03*
X31200000Y-44933554D03*
X35700000Y-31723554D03*
X34690000Y-31723554D03*
X36100000Y-38433554D03*
X37482000Y-32221554D03*
X32110000Y-39333554D03*
X32330000Y-32240000D03*
X36050000Y-48983554D03*
D16*
X38350000Y-39783554D02*
X40450000Y-37683554D01*
X35450000Y-40683554D02*
X36350000Y-39783554D01*
X39700000Y-47883554D02*
X39700000Y-44233554D01*
X41900000Y-36233554D02*
X41900000Y-35423554D01*
X39700000Y-44233554D02*
X41000000Y-42933554D01*
X38900000Y-48533554D02*
X39050000Y-48533554D01*
D17*
X41784054Y-35423554D02*
X41900000Y-35423554D01*
D16*
X41000000Y-42933554D02*
X41100000Y-42933554D01*
X40450000Y-37683554D02*
X41900000Y-36233554D01*
X36350000Y-39783554D02*
X39500000Y-42933554D01*
X39500000Y-42933554D02*
X41100000Y-42933554D01*
X39050000Y-48533554D02*
X39700000Y-47883554D01*
X36350000Y-39783554D02*
X38350000Y-39783554D01*
D17*
X41250000Y-37683554D02*
X40450000Y-37683554D01*
D16*
X32250000Y-40683554D02*
X35450000Y-40683554D01*
X41900000Y-35423554D02*
X43070000Y-34253554D01*
D17*
X41460500Y-35100000D02*
X41784054Y-35423554D01*
X31650000Y-36833554D02*
X30400000Y-35583554D01*
X35830000Y-35970000D02*
X34966446Y-36833554D01*
X32510000Y-35363554D02*
X30620000Y-35363554D01*
X34966446Y-36833554D02*
X32150000Y-36833554D01*
X30620000Y-35363554D02*
X30400000Y-35583554D01*
X32150000Y-36833554D02*
X31650000Y-36833554D01*
X31120000Y-31173554D02*
X36730000Y-31193554D01*
X31770000Y-31673554D02*
X32720000Y-31683554D01*
X32720000Y-31683554D02*
X33730000Y-31683554D01*
X30700000Y-40933554D02*
X31450000Y-40183554D01*
X30900000Y-42533554D02*
X30700000Y-42333554D01*
X31700000Y-42533554D02*
X30900000Y-42533554D01*
X38250000Y-39283554D02*
X39650000Y-37883554D01*
X39650000Y-37883554D02*
X39650000Y-37633554D01*
X31450000Y-40183554D02*
X35200000Y-40183554D01*
X30700000Y-42333554D02*
X30700000Y-40933554D01*
X35200000Y-40183554D02*
X36100000Y-39283554D01*
X36100000Y-39283554D02*
X38250000Y-39283554D01*
X37450000Y-47333554D02*
X37450000Y-48633554D01*
X38200000Y-49383554D02*
X40640000Y-49383554D01*
X37450000Y-48633554D02*
X38200000Y-49383554D01*
X32350000Y-42033554D02*
X32350000Y-42233554D01*
X40640000Y-49383554D02*
X43070000Y-46953554D01*
X32350000Y-42233554D02*
X37450000Y-47333554D01*
X37100000Y-47483554D02*
X37100000Y-48783554D01*
X38050000Y-49733554D02*
X41800000Y-49733554D01*
X42040000Y-49493554D02*
X43070000Y-49493554D01*
X31800000Y-44333554D02*
X33950000Y-44333554D01*
X37100000Y-48783554D02*
X38050000Y-49733554D01*
X33950000Y-44333554D02*
X37100000Y-47483554D01*
X31400000Y-43933554D02*
X31800000Y-44333554D01*
X41800000Y-49733554D02*
X42040000Y-49493554D01*
X30850000Y-44333554D02*
X30950000Y-44433554D01*
X36750000Y-48933554D02*
X36750000Y-47633554D01*
X41120000Y-50083554D02*
X37900000Y-50083554D01*
X30950000Y-44433554D02*
X31400000Y-44433554D01*
X43070000Y-52033554D02*
X41120000Y-50083554D01*
X33800000Y-44683554D02*
X31650000Y-44683554D01*
X37900000Y-50083554D02*
X36750000Y-48933554D01*
X31650000Y-44683554D02*
X31400000Y-44433554D01*
X36750000Y-47633554D02*
X33800000Y-44683554D01*
X41600000Y-51033554D02*
X41950000Y-51383554D01*
X41950000Y-53453554D02*
X43070000Y-54573554D01*
X40300000Y-51033554D02*
X41600000Y-51033554D01*
X41950000Y-51383554D02*
X41950000Y-53453554D01*
X30350000Y-40783554D02*
X31300000Y-39833554D01*
X27830000Y-49493554D02*
X28950000Y-50613554D01*
X33400000Y-53083554D02*
X35200000Y-51283554D01*
X33650000Y-45533554D02*
X31100000Y-45533554D01*
X31100000Y-45533554D02*
X30350000Y-44783554D01*
X35050000Y-39833554D02*
X35950000Y-38933554D01*
X28950000Y-50613554D02*
X28950000Y-52483554D01*
X30350000Y-44783554D02*
X30350000Y-40783554D01*
X35950000Y-38933554D02*
X36450000Y-38933554D01*
X35200000Y-51283554D02*
X35200000Y-47083554D01*
X36450000Y-38933554D02*
X36750000Y-38633554D01*
X31300000Y-39833554D02*
X35050000Y-39833554D01*
X35200000Y-47083554D02*
X33650000Y-45533554D01*
X28950000Y-52483554D02*
X29550000Y-53083554D01*
X29550000Y-53083554D02*
X33400000Y-53083554D01*
X39150000Y-49033554D02*
X40300000Y-47883554D01*
X32850000Y-41783554D02*
X32600000Y-41533554D01*
X37800000Y-47183554D02*
X32850000Y-42233554D01*
X38350000Y-49033554D02*
X39150000Y-49033554D01*
X40300000Y-47883554D02*
X40300000Y-47033554D01*
X31300000Y-41533554D02*
X31200000Y-41433554D01*
X32600000Y-41533554D02*
X31300000Y-41533554D01*
X32850000Y-42233554D02*
X32850000Y-41783554D01*
X37800000Y-48483554D02*
X38350000Y-49033554D01*
X37800000Y-47183554D02*
X37800000Y-48483554D01*
X38300000Y-48233554D02*
X38300000Y-47183554D01*
X31900000Y-41183554D02*
X32750000Y-41183554D01*
X33200000Y-42083554D02*
X38300000Y-47183554D01*
X32750000Y-41183554D02*
X33200000Y-41633554D01*
X31550000Y-40833554D02*
X31900000Y-41183554D01*
X33200000Y-41633554D02*
X33200000Y-42083554D01*
X27830000Y-39333554D02*
X28600000Y-40103554D01*
X28600000Y-40103554D02*
X28600000Y-41083554D01*
X33450000Y-47333554D02*
X33450000Y-47583554D01*
X28600000Y-41083554D02*
X28950000Y-41433554D01*
X33050000Y-46933554D02*
X30500000Y-46933554D01*
X33050000Y-46933554D02*
X33450000Y-47333554D01*
X30500000Y-46933554D02*
X28950000Y-45383554D01*
X28950000Y-45383554D02*
X28950000Y-41433554D01*
X28600000Y-37563554D02*
X27830000Y-36793554D01*
X28600000Y-38533554D02*
X28600000Y-37563554D01*
X33600000Y-48233554D02*
X33950000Y-47883554D01*
X28950000Y-40933554D02*
X28950000Y-38883554D01*
X29300000Y-41283554D02*
X29300000Y-45233554D01*
X30650000Y-46583554D02*
X33200000Y-46583554D01*
X28950000Y-38883554D02*
X28600000Y-38533554D01*
X29300000Y-45233554D02*
X30650000Y-46583554D01*
X33950000Y-47333554D02*
X33200000Y-46583554D01*
X29300000Y-41283554D02*
X28950000Y-40933554D01*
X33950000Y-47883554D02*
X33950000Y-47333554D01*
X29300000Y-38733554D02*
X29300000Y-40783554D01*
X29650000Y-45083554D02*
X29650000Y-41133554D01*
X34300000Y-47183554D02*
X34300000Y-48433554D01*
X27830000Y-29173554D02*
X28950000Y-30293554D01*
X34300000Y-48433554D02*
X34200000Y-48533554D01*
X28950000Y-38383554D02*
X29300000Y-38733554D01*
X28950000Y-30293554D02*
X28950000Y-38383554D01*
X33350000Y-46233554D02*
X30800000Y-46233554D01*
X30800000Y-46233554D02*
X29650000Y-45083554D01*
X33350000Y-46233554D02*
X34300000Y-47183554D01*
X29300000Y-40783554D02*
X29650000Y-41133554D01*
X30000000Y-40983554D02*
X29650000Y-40633554D01*
X29650000Y-38583554D02*
X29300000Y-38233554D01*
X29300000Y-38233554D02*
X29300000Y-32083554D01*
X34700000Y-48983554D02*
X34700000Y-47083554D01*
X34700000Y-47083554D02*
X33500000Y-45883554D01*
X29300000Y-32083554D02*
X29450000Y-31933554D01*
X29650000Y-40633554D02*
X29650000Y-38583554D01*
X33500000Y-45883554D02*
X30950000Y-45883554D01*
X30000000Y-44933554D02*
X30000000Y-40983554D01*
X30950000Y-45883554D02*
X30000000Y-44933554D01*
X41600000Y-40333554D02*
X41600000Y-43183554D01*
X41600000Y-43183554D02*
X41150000Y-43633554D01*
X40100000Y-38833554D02*
X41600000Y-40333554D01*
X41950000Y-40183554D02*
X41950000Y-43733554D01*
X40650000Y-38883554D02*
X41950000Y-40183554D01*
X41950000Y-43733554D02*
X41800000Y-43883554D01*
X40650000Y-38433554D02*
X40650000Y-38883554D01*
X31200000Y-44933554D02*
X31400000Y-44933554D01*
X31500000Y-45033554D02*
X33650000Y-45033554D01*
X33650000Y-45033554D02*
X35550000Y-46933554D01*
X35550000Y-51433554D02*
X33550000Y-53433554D01*
X31510000Y-53433554D02*
X30370000Y-54573554D01*
X31400000Y-44933554D02*
X31500000Y-45033554D01*
X35550000Y-46933554D02*
X35550000Y-51433554D01*
X33550000Y-53433554D02*
X31510000Y-53433554D01*
X35700000Y-31723554D02*
X34690000Y-31723554D01*
D18*
X41905489Y-27798065D02*
X43070000Y-26633554D01*
D17*
X35950000Y-38583554D02*
X35800000Y-38583554D01*
X41062000Y-32221554D02*
X41905489Y-31378065D01*
X32260000Y-39483554D02*
X32110000Y-39333554D01*
X37482000Y-32221554D02*
X41062000Y-32221554D01*
X32330000Y-32240000D02*
X37463554Y-32240000D01*
X37463554Y-32240000D02*
X37482000Y-32221554D01*
X41905489Y-31378065D02*
X41905489Y-27798065D01*
X34900000Y-39483554D02*
X32260000Y-39483554D01*
X35800000Y-38583554D02*
X34900000Y-39483554D01*
X36100000Y-38433554D02*
X35950000Y-38583554D01*
X35900000Y-51583554D02*
X35900000Y-49133554D01*
X35900000Y-49133554D02*
X36050000Y-48983554D01*
X32910000Y-54573554D02*
X35900000Y-51583554D01*
G04 #@! TA.AperFunction,Conductor*
G36*
X36572502Y-49106140D02*
G01*
X36574429Y-49104000D01*
X36580598Y-49109555D01*
X36585479Y-49116273D01*
X36593329Y-49120805D01*
X36609686Y-49133358D01*
X37724021Y-50247694D01*
X37726869Y-50250694D01*
X37755479Y-50282469D01*
X37775751Y-50291495D01*
X37779210Y-50293035D01*
X37790103Y-50298950D01*
X37804924Y-50308575D01*
X37804925Y-50308576D01*
X37811888Y-50313097D01*
X37820089Y-50314396D01*
X37820835Y-50314514D01*
X37840604Y-50320370D01*
X37841290Y-50320675D01*
X37841291Y-50320675D01*
X37848880Y-50324054D01*
X37874856Y-50324054D01*
X37887214Y-50325027D01*
X37904664Y-50327791D01*
X37904666Y-50327791D01*
X37912868Y-50329090D01*
X37921617Y-50326746D01*
X37942062Y-50324054D01*
X40987660Y-50324054D01*
X41038440Y-50342536D01*
X41043521Y-50347193D01*
X41354521Y-50658193D01*
X41377359Y-50707169D01*
X41363373Y-50759367D01*
X41319107Y-50790362D01*
X41298660Y-50793054D01*
X40686900Y-50793054D01*
X40636120Y-50774572D01*
X40631039Y-50769915D01*
X40550245Y-50689121D01*
X40431562Y-50628649D01*
X40425423Y-50627677D01*
X40425421Y-50627676D01*
X40306143Y-50608785D01*
X40300000Y-50607812D01*
X40293857Y-50608785D01*
X40174579Y-50627676D01*
X40174577Y-50627677D01*
X40168438Y-50628649D01*
X40049755Y-50689121D01*
X39955567Y-50783309D01*
X39952745Y-50788848D01*
X39952744Y-50788849D01*
X39926423Y-50840507D01*
X39895095Y-50901992D01*
X39874258Y-51033554D01*
X39875231Y-51039697D01*
X39884387Y-51097504D01*
X39895095Y-51165116D01*
X39904673Y-51183913D01*
X39950602Y-51274054D01*
X39955567Y-51283799D01*
X40049755Y-51377987D01*
X40168438Y-51438459D01*
X40174577Y-51439431D01*
X40174579Y-51439432D01*
X40277111Y-51455671D01*
X40285062Y-51456930D01*
X40293857Y-51458323D01*
X40300000Y-51459296D01*
X40306143Y-51458323D01*
X40314939Y-51456930D01*
X40322889Y-51455671D01*
X40425421Y-51439432D01*
X40425423Y-51439431D01*
X40431562Y-51438459D01*
X40550245Y-51377987D01*
X40631039Y-51297193D01*
X40680015Y-51274355D01*
X40686900Y-51274054D01*
X41467659Y-51274054D01*
X41518439Y-51292536D01*
X41523521Y-51297193D01*
X41686362Y-51460035D01*
X41709199Y-51509011D01*
X41709500Y-51515896D01*
X41709500Y-53445179D01*
X41709392Y-53449313D01*
X41707154Y-53492016D01*
X41716465Y-53516272D01*
X41719981Y-53528141D01*
X41725384Y-53553560D01*
X41730706Y-53560884D01*
X41740551Y-53579017D01*
X41743794Y-53587466D01*
X41762158Y-53605830D01*
X41770205Y-53615250D01*
X41785479Y-53636273D01*
X41793329Y-53640805D01*
X41809686Y-53653358D01*
X42163298Y-54006970D01*
X42186136Y-54055946D01*
X42176666Y-54100888D01*
X42136720Y-54173550D01*
X42076800Y-54362443D01*
X42054710Y-54559377D01*
X42071292Y-54756851D01*
X42125915Y-54947344D01*
X42216498Y-55123599D01*
X42339590Y-55278902D01*
X42490504Y-55407340D01*
X42493878Y-55409226D01*
X42493880Y-55409227D01*
X42519363Y-55423469D01*
X42663490Y-55504019D01*
X42667152Y-55505209D01*
X42667157Y-55505211D01*
X42740128Y-55528920D01*
X42782712Y-55562190D01*
X42793947Y-55615048D01*
X42768577Y-55662762D01*
X42715716Y-55683054D01*
X40890717Y-55683054D01*
X40839937Y-55664572D01*
X40812917Y-55617772D01*
X40822301Y-55564554D01*
X40863697Y-55529818D01*
X40869472Y-55527964D01*
X40897190Y-55520225D01*
X40991858Y-55472405D01*
X41070619Y-55432620D01*
X41070621Y-55432619D01*
X41074073Y-55430875D01*
X41230232Y-55308870D01*
X41258707Y-55275881D01*
X41357196Y-55161782D01*
X41357200Y-55161777D01*
X41359720Y-55158857D01*
X41361626Y-55155501D01*
X41361630Y-55155496D01*
X41455695Y-54989910D01*
X41457604Y-54986550D01*
X41468757Y-54953024D01*
X41518935Y-54802184D01*
X41518936Y-54802179D01*
X41520156Y-54798512D01*
X41544993Y-54601905D01*
X41545389Y-54573554D01*
X41526051Y-54376331D01*
X41468774Y-54186619D01*
X41466963Y-54183214D01*
X41466961Y-54183208D01*
X41377551Y-54015054D01*
X41375739Y-54011646D01*
X41371998Y-54007058D01*
X41252930Y-53861068D01*
X41250490Y-53858076D01*
X41238415Y-53848086D01*
X41100773Y-53734219D01*
X41100772Y-53734218D01*
X41097798Y-53731758D01*
X41079979Y-53722123D01*
X40991633Y-53674355D01*
X40923479Y-53637504D01*
X40734172Y-53578904D01*
X40537089Y-53558190D01*
X40533243Y-53558540D01*
X40533242Y-53558540D01*
X40485487Y-53562886D01*
X40339735Y-53576150D01*
X40336028Y-53577241D01*
X40153338Y-53631010D01*
X40153335Y-53631011D01*
X40149629Y-53632102D01*
X40146202Y-53633894D01*
X40146201Y-53633894D01*
X40141480Y-53636362D01*
X39974010Y-53723913D01*
X39971003Y-53726331D01*
X39971001Y-53726332D01*
X39894207Y-53788076D01*
X39819570Y-53848086D01*
X39692189Y-53999893D01*
X39690327Y-54003281D01*
X39690325Y-54003283D01*
X39637151Y-54100007D01*
X39596720Y-54173550D01*
X39536800Y-54362443D01*
X39514710Y-54559377D01*
X39531292Y-54756851D01*
X39585915Y-54947344D01*
X39676498Y-55123599D01*
X39799590Y-55278902D01*
X39950504Y-55407340D01*
X39953878Y-55409226D01*
X39953880Y-55409227D01*
X39979363Y-55423469D01*
X40123490Y-55504019D01*
X40127152Y-55505209D01*
X40127157Y-55505211D01*
X40200128Y-55528920D01*
X40242712Y-55562190D01*
X40253947Y-55615048D01*
X40228577Y-55662762D01*
X40175716Y-55683054D01*
X38350717Y-55683054D01*
X38299937Y-55664572D01*
X38272917Y-55617772D01*
X38282301Y-55564554D01*
X38323697Y-55529818D01*
X38329472Y-55527964D01*
X38357190Y-55520225D01*
X38451858Y-55472405D01*
X38530619Y-55432620D01*
X38530621Y-55432619D01*
X38534073Y-55430875D01*
X38690232Y-55308870D01*
X38718707Y-55275881D01*
X38817196Y-55161782D01*
X38817200Y-55161777D01*
X38819720Y-55158857D01*
X38821626Y-55155501D01*
X38821630Y-55155496D01*
X38915695Y-54989910D01*
X38917604Y-54986550D01*
X38928757Y-54953024D01*
X38978935Y-54802184D01*
X38978936Y-54802179D01*
X38980156Y-54798512D01*
X39004993Y-54601905D01*
X39005389Y-54573554D01*
X38986051Y-54376331D01*
X38928774Y-54186619D01*
X38926963Y-54183214D01*
X38926961Y-54183208D01*
X38837551Y-54015054D01*
X38835739Y-54011646D01*
X38831998Y-54007058D01*
X38712930Y-53861068D01*
X38710490Y-53858076D01*
X38698415Y-53848086D01*
X38560773Y-53734219D01*
X38560772Y-53734218D01*
X38557798Y-53731758D01*
X38539979Y-53722123D01*
X38451633Y-53674355D01*
X38383479Y-53637504D01*
X38194172Y-53578904D01*
X37997089Y-53558190D01*
X37993243Y-53558540D01*
X37993242Y-53558540D01*
X37945487Y-53562886D01*
X37799735Y-53576150D01*
X37796028Y-53577241D01*
X37613338Y-53631010D01*
X37613335Y-53631011D01*
X37609629Y-53632102D01*
X37606202Y-53633894D01*
X37606201Y-53633894D01*
X37601480Y-53636362D01*
X37434010Y-53723913D01*
X37431003Y-53726331D01*
X37431001Y-53726332D01*
X37354207Y-53788076D01*
X37279570Y-53848086D01*
X37152189Y-53999893D01*
X37150327Y-54003281D01*
X37150325Y-54003283D01*
X37097151Y-54100007D01*
X37056720Y-54173550D01*
X36996800Y-54362443D01*
X36974710Y-54559377D01*
X36991292Y-54756851D01*
X37045915Y-54947344D01*
X37136498Y-55123599D01*
X37259590Y-55278902D01*
X37410504Y-55407340D01*
X37413878Y-55409226D01*
X37413880Y-55409227D01*
X37439363Y-55423469D01*
X37583490Y-55504019D01*
X37587152Y-55505209D01*
X37587157Y-55505211D01*
X37660128Y-55528920D01*
X37702712Y-55562190D01*
X37713947Y-55615048D01*
X37688577Y-55662762D01*
X37635716Y-55683054D01*
X35810717Y-55683054D01*
X35759937Y-55664572D01*
X35732917Y-55617772D01*
X35742301Y-55564554D01*
X35783697Y-55529818D01*
X35789472Y-55527964D01*
X35817190Y-55520225D01*
X35911858Y-55472405D01*
X35990619Y-55432620D01*
X35990621Y-55432619D01*
X35994073Y-55430875D01*
X36150232Y-55308870D01*
X36178707Y-55275881D01*
X36277196Y-55161782D01*
X36277200Y-55161777D01*
X36279720Y-55158857D01*
X36281626Y-55155501D01*
X36281630Y-55155496D01*
X36375695Y-54989910D01*
X36377604Y-54986550D01*
X36388757Y-54953024D01*
X36438935Y-54802184D01*
X36438936Y-54802179D01*
X36440156Y-54798512D01*
X36464993Y-54601905D01*
X36465389Y-54573554D01*
X36446051Y-54376331D01*
X36388774Y-54186619D01*
X36386963Y-54183214D01*
X36386961Y-54183208D01*
X36297551Y-54015054D01*
X36295739Y-54011646D01*
X36291998Y-54007058D01*
X36172930Y-53861068D01*
X36170490Y-53858076D01*
X36158415Y-53848086D01*
X36020773Y-53734219D01*
X36020772Y-53734218D01*
X36017798Y-53731758D01*
X35999979Y-53722123D01*
X35911633Y-53674355D01*
X35843479Y-53637504D01*
X35654172Y-53578904D01*
X35457089Y-53558190D01*
X35453243Y-53558540D01*
X35453242Y-53558540D01*
X35405487Y-53562886D01*
X35259735Y-53576150D01*
X35256028Y-53577241D01*
X35073338Y-53631010D01*
X35073335Y-53631011D01*
X35069629Y-53632102D01*
X35066202Y-53633894D01*
X35066201Y-53633894D01*
X35061480Y-53636362D01*
X34894010Y-53723913D01*
X34891003Y-53726331D01*
X34891001Y-53726332D01*
X34814207Y-53788076D01*
X34739570Y-53848086D01*
X34612189Y-53999893D01*
X34610327Y-54003281D01*
X34610325Y-54003283D01*
X34557151Y-54100007D01*
X34516720Y-54173550D01*
X34456800Y-54362443D01*
X34434710Y-54559377D01*
X34451292Y-54756851D01*
X34505915Y-54947344D01*
X34596498Y-55123599D01*
X34719590Y-55278902D01*
X34870504Y-55407340D01*
X34873878Y-55409226D01*
X34873880Y-55409227D01*
X34899363Y-55423469D01*
X35043490Y-55504019D01*
X35047152Y-55505209D01*
X35047157Y-55505211D01*
X35120128Y-55528920D01*
X35162712Y-55562190D01*
X35173947Y-55615048D01*
X35148577Y-55662762D01*
X35095716Y-55683054D01*
X33270717Y-55683054D01*
X33219937Y-55664572D01*
X33192917Y-55617772D01*
X33202301Y-55564554D01*
X33243697Y-55529818D01*
X33249472Y-55527964D01*
X33277190Y-55520225D01*
X33371858Y-55472405D01*
X33450619Y-55432620D01*
X33450621Y-55432619D01*
X33454073Y-55430875D01*
X33610232Y-55308870D01*
X33638707Y-55275881D01*
X33737196Y-55161782D01*
X33737200Y-55161777D01*
X33739720Y-55158857D01*
X33741626Y-55155501D01*
X33741630Y-55155496D01*
X33835695Y-54989910D01*
X33837604Y-54986550D01*
X33848757Y-54953024D01*
X33898935Y-54802184D01*
X33898936Y-54802179D01*
X33900156Y-54798512D01*
X33924993Y-54601905D01*
X33925389Y-54573554D01*
X33906051Y-54376331D01*
X33848774Y-54186619D01*
X33832962Y-54156882D01*
X33802722Y-54100007D01*
X33795201Y-54046494D01*
X33816614Y-54007058D01*
X34931053Y-52892620D01*
X36064140Y-51759533D01*
X36067140Y-51756685D01*
X36092744Y-51733631D01*
X36098915Y-51728075D01*
X36109481Y-51704344D01*
X36115396Y-51693451D01*
X36125021Y-51678630D01*
X36125022Y-51678629D01*
X36129543Y-51671666D01*
X36130960Y-51662718D01*
X36136816Y-51642950D01*
X36137121Y-51642264D01*
X36137121Y-51642263D01*
X36140500Y-51634674D01*
X36140500Y-51608698D01*
X36141473Y-51596340D01*
X36144237Y-51578890D01*
X36144237Y-51578888D01*
X36145536Y-51570686D01*
X36143192Y-51561937D01*
X36140500Y-51541492D01*
X36140500Y-49457793D01*
X36158982Y-49407013D01*
X36183635Y-49387404D01*
X36294700Y-49330813D01*
X36294703Y-49330811D01*
X36300245Y-49327987D01*
X36394433Y-49233799D01*
X36404060Y-49214906D01*
X36442859Y-49138758D01*
X36449856Y-49125025D01*
X36489378Y-49088170D01*
X36543343Y-49085342D01*
X36572502Y-49106140D01*
G37*
G04 #@! TD.AperFunction*
G04 #@! TA.AperFunction,Conductor*
G36*
X26839000Y-44704172D02*
G01*
X26873736Y-44745568D01*
X26875439Y-44750810D01*
X26885915Y-44787344D01*
X26976498Y-44963599D01*
X27099590Y-45118902D01*
X27250504Y-45247340D01*
X27423490Y-45344019D01*
X27427152Y-45345209D01*
X27427157Y-45345211D01*
X27532118Y-45379314D01*
X27611960Y-45405256D01*
X27615797Y-45405714D01*
X27615799Y-45405714D01*
X27804892Y-45428262D01*
X27804895Y-45428262D01*
X27808735Y-45428720D01*
X28006320Y-45413517D01*
X28197190Y-45360225D01*
X28367780Y-45274054D01*
X28370619Y-45272620D01*
X28370621Y-45272619D01*
X28374073Y-45270875D01*
X28530232Y-45148870D01*
X28570697Y-45101991D01*
X28617870Y-45075627D01*
X28670951Y-45085753D01*
X28705106Y-45127631D01*
X28709500Y-45153611D01*
X28709500Y-45375179D01*
X28709392Y-45379314D01*
X28707654Y-45412479D01*
X28707154Y-45422016D01*
X28716465Y-45446272D01*
X28719981Y-45458141D01*
X28725384Y-45483560D01*
X28730706Y-45490884D01*
X28740551Y-45509017D01*
X28743794Y-45517466D01*
X28762158Y-45535830D01*
X28770205Y-45545250D01*
X28785479Y-45566273D01*
X28793329Y-45570805D01*
X28809686Y-45583358D01*
X30324012Y-47097684D01*
X30326860Y-47100684D01*
X30355479Y-47132469D01*
X30363065Y-47135846D01*
X30363067Y-47135848D01*
X30379206Y-47143033D01*
X30390100Y-47148948D01*
X30404921Y-47158573D01*
X30404924Y-47158574D01*
X30411887Y-47163096D01*
X30420088Y-47164395D01*
X30420832Y-47164513D01*
X30440603Y-47170369D01*
X30448880Y-47174054D01*
X30474857Y-47174054D01*
X30487215Y-47175027D01*
X30504664Y-47177791D01*
X30504666Y-47177791D01*
X30512868Y-47179090D01*
X30521615Y-47176746D01*
X30542063Y-47174054D01*
X32917660Y-47174054D01*
X32968440Y-47192536D01*
X32973521Y-47197193D01*
X33066355Y-47290027D01*
X33089193Y-47339003D01*
X33080883Y-47381754D01*
X33047917Y-47446452D01*
X33047916Y-47446456D01*
X33045095Y-47451992D01*
X33044123Y-47458131D01*
X33044122Y-47458133D01*
X33031337Y-47538857D01*
X33024258Y-47583554D01*
X33025231Y-47589697D01*
X33041315Y-47691247D01*
X33045095Y-47715116D01*
X33047917Y-47720654D01*
X33097574Y-47818111D01*
X33105567Y-47833799D01*
X33199755Y-47927987D01*
X33205299Y-47930812D01*
X33206922Y-47931991D01*
X33237140Y-47976792D01*
X33230875Y-48031768D01*
X33197918Y-48096449D01*
X33197916Y-48096456D01*
X33195095Y-48101992D01*
X33194123Y-48108131D01*
X33194122Y-48108133D01*
X33177883Y-48210665D01*
X33174258Y-48233554D01*
X33195095Y-48365116D01*
X33255567Y-48483799D01*
X33349755Y-48577987D01*
X33355294Y-48580809D01*
X33355295Y-48580810D01*
X33364127Y-48585310D01*
X33468438Y-48638459D01*
X33474577Y-48639431D01*
X33474579Y-48639432D01*
X33593857Y-48658323D01*
X33600000Y-48659296D01*
X33721093Y-48640117D01*
X33774138Y-48650428D01*
X33803840Y-48682279D01*
X33819756Y-48713515D01*
X33855567Y-48783799D01*
X33949755Y-48877987D01*
X34068438Y-48938459D01*
X34074577Y-48939431D01*
X34074579Y-48939432D01*
X34177111Y-48955671D01*
X34200000Y-48959296D01*
X34203807Y-48958693D01*
X34253570Y-48976805D01*
X34280817Y-49024964D01*
X34295095Y-49115116D01*
X34319312Y-49162645D01*
X34345941Y-49214906D01*
X34355567Y-49233799D01*
X34449755Y-49327987D01*
X34568438Y-49388459D01*
X34574577Y-49389431D01*
X34574579Y-49389432D01*
X34670634Y-49404645D01*
X34685586Y-49407013D01*
X34693857Y-49408323D01*
X34700000Y-49409296D01*
X34706143Y-49408323D01*
X34714415Y-49407013D01*
X34729366Y-49404645D01*
X34825421Y-49389432D01*
X34825423Y-49389431D01*
X34831562Y-49388459D01*
X34844635Y-49381798D01*
X34898271Y-49375213D01*
X34943592Y-49404645D01*
X34959500Y-49452188D01*
X34959500Y-51151214D01*
X34941018Y-51201994D01*
X34936361Y-51207075D01*
X33323521Y-52819915D01*
X33274545Y-52842753D01*
X33267660Y-52843054D01*
X29682340Y-52843054D01*
X29631560Y-52824572D01*
X29626479Y-52819915D01*
X29213639Y-52407075D01*
X29190801Y-52358099D01*
X29190500Y-52351214D01*
X29190500Y-50621921D01*
X29190608Y-50617786D01*
X29192412Y-50583379D01*
X29192412Y-50583377D01*
X29192846Y-50575091D01*
X29183537Y-50550841D01*
X29180016Y-50538953D01*
X29176342Y-50521668D01*
X29174616Y-50513548D01*
X29169290Y-50506217D01*
X29159451Y-50488096D01*
X29156206Y-50479642D01*
X29137842Y-50461278D01*
X29129795Y-50451858D01*
X29114521Y-50430835D01*
X29106671Y-50426303D01*
X29090314Y-50413750D01*
X28736945Y-50060381D01*
X28714107Y-50011405D01*
X28724116Y-49965500D01*
X28757604Y-49906550D01*
X28768476Y-49873868D01*
X28818935Y-49722184D01*
X28818936Y-49722179D01*
X28820156Y-49718512D01*
X28844993Y-49521905D01*
X28845389Y-49493554D01*
X28829432Y-49330810D01*
X28826428Y-49300175D01*
X28826428Y-49300174D01*
X28826051Y-49296331D01*
X28768774Y-49106619D01*
X28766963Y-49103214D01*
X28766961Y-49103208D01*
X28679879Y-48939432D01*
X28675739Y-48931646D01*
X28672157Y-48927253D01*
X28595495Y-48833258D01*
X28550490Y-48778076D01*
X28538415Y-48768086D01*
X28400773Y-48654219D01*
X28400772Y-48654218D01*
X28397798Y-48651758D01*
X28379979Y-48642123D01*
X28321484Y-48610495D01*
X28223479Y-48557504D01*
X28034172Y-48498904D01*
X27837089Y-48478190D01*
X27833243Y-48478540D01*
X27833242Y-48478540D01*
X27785487Y-48482886D01*
X27639735Y-48496150D01*
X27636028Y-48497241D01*
X27453338Y-48551010D01*
X27453335Y-48551011D01*
X27449629Y-48552102D01*
X27446202Y-48553894D01*
X27446201Y-48553894D01*
X27435784Y-48559340D01*
X27274010Y-48643913D01*
X27271003Y-48646331D01*
X27271001Y-48646332D01*
X27254877Y-48659296D01*
X27119570Y-48768086D01*
X26992189Y-48919893D01*
X26990327Y-48923281D01*
X26990325Y-48923283D01*
X26981982Y-48938459D01*
X26896720Y-49093550D01*
X26895551Y-49097234D01*
X26895551Y-49097235D01*
X26874802Y-49162645D01*
X26841831Y-49205460D01*
X26789052Y-49217064D01*
X26741162Y-49192028D01*
X26720500Y-49138758D01*
X26720500Y-47312588D01*
X26738982Y-47261808D01*
X26785782Y-47234788D01*
X26839000Y-47244172D01*
X26873736Y-47285568D01*
X26875439Y-47290810D01*
X26885915Y-47327344D01*
X26976498Y-47503599D01*
X27099590Y-47658902D01*
X27250504Y-47787340D01*
X27423490Y-47884019D01*
X27427152Y-47885209D01*
X27427157Y-47885211D01*
X27545269Y-47923587D01*
X27611960Y-47945256D01*
X27615797Y-47945714D01*
X27615799Y-47945714D01*
X27804892Y-47968262D01*
X27804895Y-47968262D01*
X27808735Y-47968720D01*
X28006320Y-47953517D01*
X28197190Y-47900225D01*
X28339659Y-47828259D01*
X28370619Y-47812620D01*
X28370621Y-47812619D01*
X28374073Y-47810875D01*
X28473528Y-47733172D01*
X28527190Y-47691247D01*
X28527192Y-47691245D01*
X28530232Y-47688870D01*
X28621139Y-47583554D01*
X28657196Y-47541782D01*
X28657200Y-47541777D01*
X28659720Y-47538857D01*
X28661626Y-47535501D01*
X28661630Y-47535496D01*
X28755695Y-47369910D01*
X28757604Y-47366550D01*
X28769339Y-47331274D01*
X28818935Y-47182184D01*
X28818936Y-47182179D01*
X28820156Y-47178512D01*
X28821925Y-47164513D01*
X28830367Y-47097684D01*
X28844993Y-46981905D01*
X28845389Y-46953554D01*
X28826051Y-46756331D01*
X28768774Y-46566619D01*
X28766963Y-46563214D01*
X28766961Y-46563208D01*
X28677551Y-46395054D01*
X28675739Y-46391646D01*
X28668919Y-46383283D01*
X28552930Y-46241068D01*
X28550490Y-46238076D01*
X28538415Y-46228086D01*
X28400773Y-46114219D01*
X28400772Y-46114218D01*
X28397798Y-46111758D01*
X28379979Y-46102123D01*
X28360059Y-46091353D01*
X28223479Y-46017504D01*
X28034172Y-45958904D01*
X27837089Y-45938190D01*
X27833243Y-45938540D01*
X27833242Y-45938540D01*
X27785487Y-45942886D01*
X27639735Y-45956150D01*
X27636028Y-45957241D01*
X27453338Y-46011010D01*
X27453335Y-46011011D01*
X27449629Y-46012102D01*
X27274010Y-46103913D01*
X27271003Y-46106331D01*
X27271001Y-46106332D01*
X27261192Y-46114219D01*
X27119570Y-46228086D01*
X26992189Y-46379893D01*
X26990327Y-46383281D01*
X26990325Y-46383283D01*
X26983854Y-46395054D01*
X26896720Y-46553550D01*
X26895551Y-46557234D01*
X26895551Y-46557235D01*
X26874802Y-46622645D01*
X26841831Y-46665460D01*
X26789052Y-46677064D01*
X26741162Y-46652028D01*
X26720500Y-46598758D01*
X26720500Y-44772588D01*
X26738982Y-44721808D01*
X26785782Y-44694788D01*
X26839000Y-44704172D01*
G37*
G04 #@! TD.AperFunction*
G04 #@! TA.AperFunction,Conductor*
G36*
X30641280Y-23002536D02*
G01*
X30668300Y-23049336D01*
X30669500Y-23063054D01*
X30669500Y-24124893D01*
X30651018Y-24175673D01*
X30604218Y-24202693D01*
X30551000Y-24193309D01*
X30516600Y-24152818D01*
X30466320Y-24019756D01*
X30466319Y-24019755D01*
X30464636Y-24015300D01*
X30374087Y-23883549D01*
X30254725Y-23777202D01*
X30113440Y-23702395D01*
X30108825Y-23701236D01*
X30108823Y-23701235D01*
X30035915Y-23682922D01*
X29958391Y-23663449D01*
X29953631Y-23663424D01*
X29953630Y-23663424D01*
X29881061Y-23663044D01*
X29798526Y-23662612D01*
X29698958Y-23686516D01*
X29647712Y-23698819D01*
X29647710Y-23698820D01*
X29643077Y-23699932D01*
X29638845Y-23702116D01*
X29638843Y-23702117D01*
X29602700Y-23720772D01*
X29501017Y-23773255D01*
X29380548Y-23878347D01*
X29288624Y-24009142D01*
X29230552Y-24158088D01*
X29214500Y-24280014D01*
X29214500Y-25563640D01*
X29228855Y-25682262D01*
X29235308Y-25699340D01*
X29266590Y-25782123D01*
X29285364Y-25831808D01*
X29375913Y-25963559D01*
X29379471Y-25966729D01*
X29484037Y-26059893D01*
X29495275Y-26069906D01*
X29636560Y-26144713D01*
X29641175Y-26145872D01*
X29641177Y-26145873D01*
X29714084Y-26164186D01*
X29791609Y-26183659D01*
X29796369Y-26183684D01*
X29796370Y-26183684D01*
X29868939Y-26184064D01*
X29951474Y-26184496D01*
X30051042Y-26160592D01*
X30102288Y-26148289D01*
X30102290Y-26148288D01*
X30106923Y-26147176D01*
X30111155Y-26144992D01*
X30111157Y-26144991D01*
X30181270Y-26108802D01*
X30248983Y-26073853D01*
X30369452Y-25968761D01*
X30461376Y-25837966D01*
X30516896Y-25695565D01*
X30552562Y-25654967D01*
X30605980Y-25646793D01*
X30652154Y-25674868D01*
X30669500Y-25724262D01*
X30669500Y-28324893D01*
X30651018Y-28375673D01*
X30604218Y-28402693D01*
X30551000Y-28393309D01*
X30516600Y-28352818D01*
X30466320Y-28219756D01*
X30466319Y-28219755D01*
X30464636Y-28215300D01*
X30374087Y-28083549D01*
X30254725Y-27977202D01*
X30113440Y-27902395D01*
X30108825Y-27901236D01*
X30108823Y-27901235D01*
X30001395Y-27874251D01*
X29958391Y-27863449D01*
X29953631Y-27863424D01*
X29953630Y-27863424D01*
X29881061Y-27863044D01*
X29798526Y-27862612D01*
X29698958Y-27886516D01*
X29647712Y-27898819D01*
X29647710Y-27898820D01*
X29643077Y-27899932D01*
X29638845Y-27902116D01*
X29638843Y-27902117D01*
X29633986Y-27904624D01*
X29501017Y-27973255D01*
X29380548Y-28078347D01*
X29356215Y-28112969D01*
X29308726Y-28180540D01*
X29288624Y-28209142D01*
X29286896Y-28213574D01*
X29286895Y-28213576D01*
X29278792Y-28234359D01*
X29230552Y-28358088D01*
X29229930Y-28362814D01*
X29218315Y-28451040D01*
X29214500Y-28480014D01*
X29214500Y-29363640D01*
X29218256Y-29394674D01*
X29227736Y-29473012D01*
X29228855Y-29482262D01*
X29285364Y-29631808D01*
X29344478Y-29717820D01*
X29370174Y-29755208D01*
X29375913Y-29763559D01*
X29495275Y-29869906D01*
X29636560Y-29944713D01*
X29641175Y-29945872D01*
X29641177Y-29945873D01*
X29714084Y-29964186D01*
X29791609Y-29983659D01*
X29796369Y-29983684D01*
X29796370Y-29983684D01*
X29868939Y-29984064D01*
X29951474Y-29984496D01*
X30051042Y-29960592D01*
X30102288Y-29948289D01*
X30102290Y-29948288D01*
X30106923Y-29947176D01*
X30111155Y-29944992D01*
X30111157Y-29944991D01*
X30234359Y-29881401D01*
X30248983Y-29873853D01*
X30348901Y-29786689D01*
X30365861Y-29771894D01*
X30365863Y-29771892D01*
X30369452Y-29768761D01*
X30423819Y-29691405D01*
X30458639Y-29641861D01*
X30458640Y-29641858D01*
X30461376Y-29637966D01*
X30519448Y-29489020D01*
X30527767Y-29425831D01*
X30552719Y-29377898D01*
X30602645Y-29357218D01*
X30654183Y-29373468D01*
X30673137Y-29402489D01*
X30675067Y-29401178D01*
X30676123Y-29402733D01*
X30679256Y-29407341D01*
X30679938Y-29408874D01*
X30681301Y-29411152D01*
X30683508Y-29420138D01*
X30689831Y-29427310D01*
X30699614Y-29438407D01*
X30705694Y-29446245D01*
X30714015Y-29458489D01*
X30714017Y-29458491D01*
X30719391Y-29466398D01*
X30727546Y-29470770D01*
X30728446Y-29471680D01*
X30729539Y-29472350D01*
X30735659Y-29479292D01*
X30744585Y-29482718D01*
X30744586Y-29482719D01*
X30758399Y-29488021D01*
X30767420Y-29492152D01*
X30782491Y-29500233D01*
X30782494Y-29500234D01*
X30788891Y-29503664D01*
X30791978Y-29504054D01*
X30794802Y-29504054D01*
X30801215Y-29504458D01*
X30809282Y-29507554D01*
X30835003Y-29504578D01*
X30844083Y-29504054D01*
X40044736Y-29504054D01*
X40051370Y-29504466D01*
X40059534Y-29507586D01*
X40069028Y-29506473D01*
X40069029Y-29506473D01*
X40085068Y-29504592D01*
X40094268Y-29504054D01*
X40099554Y-29504054D01*
X40104182Y-29502917D01*
X40104571Y-29502870D01*
X40113466Y-29501262D01*
X40137858Y-29498402D01*
X40145425Y-29493242D01*
X40146619Y-29492874D01*
X40147694Y-29492229D01*
X40156584Y-29490046D01*
X40163755Y-29483724D01*
X40163757Y-29483723D01*
X40174993Y-29473817D01*
X40182733Y-29467804D01*
X40195114Y-29459362D01*
X40195115Y-29459361D01*
X40203014Y-29453975D01*
X40207330Y-29445897D01*
X40208217Y-29445017D01*
X40208870Y-29443950D01*
X40215738Y-29437895D01*
X40221702Y-29422358D01*
X40257155Y-29381574D01*
X40310528Y-29373120D01*
X40356849Y-29400952D01*
X40373883Y-29441178D01*
X40377736Y-29473012D01*
X40378855Y-29482262D01*
X40435364Y-29631808D01*
X40494478Y-29717820D01*
X40520174Y-29755208D01*
X40525913Y-29763559D01*
X40645275Y-29869906D01*
X40786560Y-29944713D01*
X40791175Y-29945872D01*
X40791177Y-29945873D01*
X40864084Y-29964186D01*
X40941609Y-29983659D01*
X40946369Y-29983684D01*
X40946370Y-29983684D01*
X41018939Y-29984064D01*
X41101474Y-29984496D01*
X41201042Y-29960592D01*
X41252288Y-29948289D01*
X41252290Y-29948288D01*
X41256923Y-29947176D01*
X41261155Y-29944992D01*
X41261157Y-29944991D01*
X41384359Y-29881401D01*
X41398983Y-29873853D01*
X41498901Y-29786689D01*
X41515861Y-29771894D01*
X41515863Y-29771892D01*
X41519452Y-29768761D01*
X41522192Y-29764862D01*
X41525377Y-29761325D01*
X41526581Y-29762409D01*
X41565671Y-29735135D01*
X41619497Y-29739936D01*
X41657644Y-29778212D01*
X41664989Y-29811478D01*
X41664989Y-31245724D01*
X41646507Y-31296504D01*
X41641850Y-31301585D01*
X40985521Y-31957915D01*
X40936545Y-31980753D01*
X40929660Y-31981054D01*
X37868900Y-31981054D01*
X37818120Y-31962572D01*
X37813039Y-31957915D01*
X37732245Y-31877121D01*
X37613562Y-31816649D01*
X37607423Y-31815677D01*
X37607421Y-31815676D01*
X37488143Y-31796785D01*
X37482000Y-31795812D01*
X37475857Y-31796785D01*
X37356579Y-31815676D01*
X37356577Y-31815677D01*
X37350438Y-31816649D01*
X37231755Y-31877121D01*
X37137567Y-31971309D01*
X37136720Y-31970462D01*
X37097142Y-31997155D01*
X37078035Y-31999500D01*
X36160254Y-31999500D01*
X36109474Y-31981018D01*
X36082454Y-31934218D01*
X36089865Y-31884634D01*
X36102083Y-31860656D01*
X36102084Y-31860652D01*
X36104905Y-31855116D01*
X36107431Y-31839172D01*
X36124769Y-31729697D01*
X36125742Y-31723554D01*
X36110543Y-31627591D01*
X36105878Y-31598133D01*
X36105877Y-31598131D01*
X36104905Y-31591992D01*
X36102084Y-31586456D01*
X36102082Y-31586449D01*
X36081911Y-31546862D01*
X36075325Y-31493226D01*
X36104756Y-31447905D01*
X36152582Y-31431998D01*
X36342000Y-31432673D01*
X36392714Y-31451336D01*
X36397579Y-31455811D01*
X36479755Y-31537987D01*
X36485294Y-31540809D01*
X36485295Y-31540810D01*
X36497173Y-31546862D01*
X36598438Y-31598459D01*
X36604577Y-31599431D01*
X36604579Y-31599432D01*
X36723857Y-31618323D01*
X36730000Y-31619296D01*
X36736143Y-31618323D01*
X36855421Y-31599432D01*
X36855423Y-31599431D01*
X36861562Y-31598459D01*
X36962827Y-31546862D01*
X36974705Y-31540810D01*
X36974706Y-31540809D01*
X36980245Y-31537987D01*
X37074433Y-31443799D01*
X37134905Y-31325116D01*
X37139046Y-31298975D01*
X37154769Y-31199697D01*
X37155742Y-31193554D01*
X37140760Y-31098958D01*
X37135878Y-31068133D01*
X37135877Y-31068131D01*
X37134905Y-31061992D01*
X37074433Y-30943309D01*
X36980245Y-30849121D01*
X36949625Y-30833519D01*
X36867100Y-30791471D01*
X36867101Y-30791471D01*
X36861562Y-30788649D01*
X36855423Y-30787677D01*
X36855421Y-30787676D01*
X36736143Y-30768785D01*
X36730000Y-30767812D01*
X36723857Y-30768785D01*
X36604579Y-30787676D01*
X36604577Y-30787677D01*
X36598438Y-30788649D01*
X36592899Y-30791471D01*
X36592900Y-30791471D01*
X36510376Y-30833519D01*
X36479755Y-30849121D01*
X36400337Y-30928539D01*
X36351361Y-30951377D01*
X36344195Y-30951677D01*
X35658151Y-30949231D01*
X31508000Y-30934435D01*
X31457286Y-30915772D01*
X31452421Y-30911297D01*
X31370245Y-30829121D01*
X31251562Y-30768649D01*
X31245423Y-30767677D01*
X31245421Y-30767676D01*
X31126143Y-30748785D01*
X31120000Y-30747812D01*
X31113857Y-30748785D01*
X30994579Y-30767676D01*
X30994577Y-30767677D01*
X30988438Y-30768649D01*
X30869755Y-30829121D01*
X30775567Y-30923309D01*
X30772745Y-30928848D01*
X30772744Y-30928849D01*
X30746423Y-30980507D01*
X30715095Y-31041992D01*
X30714123Y-31048131D01*
X30714122Y-31048133D01*
X30705374Y-31103371D01*
X30694258Y-31173554D01*
X30715095Y-31305116D01*
X30727937Y-31330319D01*
X30770411Y-31413679D01*
X30775567Y-31423799D01*
X30869755Y-31517987D01*
X30875294Y-31520809D01*
X30875295Y-31520810D01*
X30903753Y-31535310D01*
X30988438Y-31578459D01*
X30994577Y-31579431D01*
X30994579Y-31579432D01*
X31113857Y-31598323D01*
X31120000Y-31599296D01*
X31126143Y-31598323D01*
X31174047Y-31590736D01*
X31251562Y-31578459D01*
X31251905Y-31580625D01*
X31296741Y-31582193D01*
X31336898Y-31618355D01*
X31344065Y-31661196D01*
X31345231Y-31661196D01*
X31345231Y-31667411D01*
X31344258Y-31673554D01*
X31345231Y-31679697D01*
X31363776Y-31796785D01*
X31365095Y-31805116D01*
X31425567Y-31923799D01*
X31519755Y-32017987D01*
X31638438Y-32078459D01*
X31644577Y-32079431D01*
X31644579Y-32079432D01*
X31763857Y-32098323D01*
X31770000Y-32099296D01*
X31776143Y-32098323D01*
X31776144Y-32098323D01*
X31823177Y-32090874D01*
X31876224Y-32101185D01*
X31910231Y-32143182D01*
X31913562Y-32181257D01*
X31904258Y-32240000D01*
X31905231Y-32246143D01*
X31922791Y-32357013D01*
X31925095Y-32371562D01*
X31943556Y-32407793D01*
X31980602Y-32480500D01*
X31985567Y-32490245D01*
X32079755Y-32584433D01*
X32198438Y-32644905D01*
X32204577Y-32645877D01*
X32204579Y-32645878D01*
X32323857Y-32664769D01*
X32330000Y-32665742D01*
X32336143Y-32664769D01*
X32455421Y-32645878D01*
X32455423Y-32645877D01*
X32461562Y-32644905D01*
X32580245Y-32584433D01*
X32661039Y-32503639D01*
X32710015Y-32480801D01*
X32716900Y-32480500D01*
X33633389Y-32480500D01*
X33684169Y-32498982D01*
X33711189Y-32545782D01*
X33701805Y-32599000D01*
X33685322Y-32619031D01*
X33575548Y-32714793D01*
X33483624Y-32845588D01*
X33425552Y-32994534D01*
X33404685Y-33153033D01*
X33408874Y-33190976D01*
X33414187Y-33239096D01*
X33422228Y-33311933D01*
X33423865Y-33316405D01*
X33423865Y-33316407D01*
X33475529Y-33457586D01*
X33475531Y-33457590D01*
X33477168Y-33462063D01*
X33479826Y-33466018D01*
X33563676Y-33590801D01*
X33563679Y-33590805D01*
X33566333Y-33594754D01*
X33569855Y-33597959D01*
X33569856Y-33597960D01*
X33681052Y-33699141D01*
X33681055Y-33699143D01*
X33684575Y-33702346D01*
X33825068Y-33778628D01*
X33979702Y-33819195D01*
X33984464Y-33819270D01*
X33984465Y-33819270D01*
X34053551Y-33820355D01*
X34139548Y-33821706D01*
X34168527Y-33815069D01*
X34290736Y-33787080D01*
X34290739Y-33787079D01*
X34295380Y-33786016D01*
X34307666Y-33779837D01*
X34433944Y-33716326D01*
X34433947Y-33716324D01*
X34438200Y-33714185D01*
X34476997Y-33681049D01*
X34556148Y-33613448D01*
X34556150Y-33613446D01*
X34559763Y-33610360D01*
X34568674Y-33597960D01*
X34650275Y-33484400D01*
X34650276Y-33484398D01*
X34653052Y-33480535D01*
X34682711Y-33406757D01*
X34710904Y-33336625D01*
X34710905Y-33336622D01*
X34712680Y-33332206D01*
X34714869Y-33316826D01*
X34734842Y-33176488D01*
X34734843Y-33176481D01*
X34735205Y-33173934D01*
X34735351Y-33160000D01*
X34716145Y-33001292D01*
X34659636Y-32851746D01*
X34600522Y-32765734D01*
X34571787Y-32723923D01*
X34571785Y-32723921D01*
X34569087Y-32719995D01*
X34464104Y-32626459D01*
X34455154Y-32618485D01*
X34429534Y-32570904D01*
X34440493Y-32517988D01*
X34482901Y-32484495D01*
X34507707Y-32480500D01*
X36173389Y-32480500D01*
X36224169Y-32498982D01*
X36251189Y-32545782D01*
X36241805Y-32599000D01*
X36225322Y-32619031D01*
X36115548Y-32714793D01*
X36023624Y-32845588D01*
X35965552Y-32994534D01*
X35944685Y-33153033D01*
X35948874Y-33190976D01*
X35954187Y-33239096D01*
X35962228Y-33311933D01*
X35963865Y-33316405D01*
X35963865Y-33316407D01*
X36015529Y-33457586D01*
X36015531Y-33457590D01*
X36017168Y-33462063D01*
X36019826Y-33466018D01*
X36103676Y-33590801D01*
X36103679Y-33590805D01*
X36106333Y-33594754D01*
X36109855Y-33597959D01*
X36109856Y-33597960D01*
X36221052Y-33699141D01*
X36221055Y-33699143D01*
X36224575Y-33702346D01*
X36365068Y-33778628D01*
X36519702Y-33819195D01*
X36524464Y-33819270D01*
X36524465Y-33819270D01*
X36593551Y-33820355D01*
X36679548Y-33821706D01*
X36708527Y-33815069D01*
X36830736Y-33787080D01*
X36830739Y-33787079D01*
X36835380Y-33786016D01*
X36847666Y-33779837D01*
X36973944Y-33716326D01*
X36973947Y-33716324D01*
X36978200Y-33714185D01*
X37016997Y-33681049D01*
X37096148Y-33613448D01*
X37096150Y-33613446D01*
X37099763Y-33610360D01*
X37108674Y-33597960D01*
X37190275Y-33484400D01*
X37190276Y-33484398D01*
X37193052Y-33480535D01*
X37222711Y-33406757D01*
X37250904Y-33336625D01*
X37250905Y-33336622D01*
X37252680Y-33332206D01*
X37254869Y-33316826D01*
X37274842Y-33176488D01*
X37274843Y-33176481D01*
X37275205Y-33173934D01*
X37275351Y-33160000D01*
X37256145Y-33001292D01*
X37199636Y-32851746D01*
X37140522Y-32765734D01*
X37111787Y-32723923D01*
X37111785Y-32723921D01*
X37109087Y-32719995D01*
X37004104Y-32626459D01*
X36995154Y-32618485D01*
X36969534Y-32570904D01*
X36980493Y-32517988D01*
X37022901Y-32484495D01*
X37047707Y-32480500D01*
X37113546Y-32480500D01*
X37164326Y-32498982D01*
X37169407Y-32503639D01*
X37231755Y-32565987D01*
X37237294Y-32568809D01*
X37237295Y-32568810D01*
X37267957Y-32584433D01*
X37350438Y-32626459D01*
X37356577Y-32627431D01*
X37356579Y-32627432D01*
X37475857Y-32646323D01*
X37482000Y-32647296D01*
X37488143Y-32646323D01*
X37607421Y-32627432D01*
X37607423Y-32627431D01*
X37613562Y-32626459D01*
X37696043Y-32584433D01*
X37726705Y-32568810D01*
X37726706Y-32568809D01*
X37732245Y-32565987D01*
X37813039Y-32485193D01*
X37862015Y-32462355D01*
X37868900Y-32462054D01*
X41053625Y-32462054D01*
X41057760Y-32462162D01*
X41092172Y-32463966D01*
X41092174Y-32463966D01*
X41100462Y-32464400D01*
X41124718Y-32455089D01*
X41136587Y-32451573D01*
X41162006Y-32446170D01*
X41169330Y-32440848D01*
X41187463Y-32431003D01*
X41188162Y-32430735D01*
X41188163Y-32430734D01*
X41195912Y-32427760D01*
X41214276Y-32409396D01*
X41223696Y-32401349D01*
X41244719Y-32386075D01*
X41249248Y-32378230D01*
X41261802Y-32361870D01*
X41549639Y-32074034D01*
X41598615Y-32051197D01*
X41650813Y-32065183D01*
X41681808Y-32109449D01*
X41684500Y-32129896D01*
X41684500Y-34617419D01*
X41666018Y-34668199D01*
X41619218Y-34695219D01*
X41592340Y-34693339D01*
X41592062Y-34695095D01*
X41466643Y-34675231D01*
X41460500Y-34674258D01*
X41454357Y-34675231D01*
X41335079Y-34694122D01*
X41335077Y-34694123D01*
X41328938Y-34695095D01*
X41210255Y-34755567D01*
X41116067Y-34849755D01*
X41055595Y-34968438D01*
X41054623Y-34974577D01*
X41054622Y-34974579D01*
X41040020Y-35066774D01*
X41034758Y-35100000D01*
X41055595Y-35231562D01*
X41116067Y-35350245D01*
X41210255Y-35444433D01*
X41328938Y-35504905D01*
X41335077Y-35505877D01*
X41335079Y-35505878D01*
X41437611Y-35522117D01*
X41456379Y-35525089D01*
X41456381Y-35525090D01*
X41460500Y-35525742D01*
X41460373Y-35526543D01*
X41506280Y-35543251D01*
X41533300Y-35590051D01*
X41534500Y-35603769D01*
X41534500Y-36035075D01*
X41512446Y-36089831D01*
X41231498Y-36382017D01*
X40417430Y-37228649D01*
X40402852Y-37243810D01*
X40354333Y-37267603D01*
X40345906Y-37268054D01*
X40136562Y-37268054D01*
X40134954Y-37268188D01*
X40134945Y-37268188D01*
X40110870Y-37270189D01*
X40110867Y-37270189D01*
X40109247Y-37270324D01*
X40083527Y-37274628D01*
X40006689Y-37309241D01*
X40005554Y-37310160D01*
X39953960Y-37320776D01*
X39909603Y-37298479D01*
X39900245Y-37289121D01*
X39870153Y-37273788D01*
X39787100Y-37231471D01*
X39787101Y-37231471D01*
X39781562Y-37228649D01*
X39775423Y-37227677D01*
X39775421Y-37227676D01*
X39656143Y-37208785D01*
X39650000Y-37207812D01*
X39643857Y-37208785D01*
X39524579Y-37227676D01*
X39524577Y-37227677D01*
X39518438Y-37228649D01*
X39512899Y-37231471D01*
X39512900Y-37231471D01*
X39429848Y-37273788D01*
X39399755Y-37289121D01*
X39305567Y-37383309D01*
X39245095Y-37501992D01*
X39224258Y-37633554D01*
X39225231Y-37639697D01*
X39241153Y-37740225D01*
X39245095Y-37765116D01*
X39247916Y-37770652D01*
X39247917Y-37770656D01*
X39280883Y-37835354D01*
X39287469Y-37888991D01*
X39266355Y-37927081D01*
X38173521Y-39019915D01*
X38124545Y-39042753D01*
X38117660Y-39043054D01*
X37125900Y-39043054D01*
X37075120Y-39024572D01*
X37048100Y-38977772D01*
X37057484Y-38924554D01*
X37070039Y-38908193D01*
X37094433Y-38883799D01*
X37154905Y-38765116D01*
X37175742Y-38633554D01*
X37168821Y-38589855D01*
X37155878Y-38508133D01*
X37155877Y-38508131D01*
X37154905Y-38501992D01*
X37116634Y-38426880D01*
X37097256Y-38388849D01*
X37097255Y-38388848D01*
X37094433Y-38383309D01*
X37000245Y-38289121D01*
X36881562Y-38228649D01*
X36875423Y-38227677D01*
X36875421Y-38227676D01*
X36756143Y-38208785D01*
X36750000Y-38207812D01*
X36743857Y-38208785D01*
X36624579Y-38227676D01*
X36624577Y-38227677D01*
X36618438Y-38228649D01*
X36612900Y-38231471D01*
X36612897Y-38231472D01*
X36569025Y-38253825D01*
X36515389Y-38260410D01*
X36470068Y-38230978D01*
X36462771Y-38219300D01*
X36447256Y-38188849D01*
X36447255Y-38188848D01*
X36444433Y-38183309D01*
X36350245Y-38089121D01*
X36231562Y-38028649D01*
X36225423Y-38027677D01*
X36225421Y-38027676D01*
X36106143Y-38008785D01*
X36100000Y-38007812D01*
X36093857Y-38008785D01*
X35974579Y-38027676D01*
X35974577Y-38027677D01*
X35968438Y-38028649D01*
X35849755Y-38089121D01*
X35755567Y-38183309D01*
X35695095Y-38301992D01*
X35694123Y-38308131D01*
X35694122Y-38308133D01*
X35690256Y-38332545D01*
X35665660Y-38376920D01*
X35666088Y-38377348D01*
X35647724Y-38395712D01*
X35638304Y-38403759D01*
X35617281Y-38419033D01*
X35612749Y-38426883D01*
X35600196Y-38443240D01*
X34823521Y-39219915D01*
X34774545Y-39242753D01*
X34767660Y-39243054D01*
X32584239Y-39243054D01*
X32533459Y-39224572D01*
X32513850Y-39199919D01*
X32457259Y-39088854D01*
X32457257Y-39088851D01*
X32454433Y-39083309D01*
X32360245Y-38989121D01*
X32339907Y-38978758D01*
X32258413Y-38937235D01*
X32241562Y-38928649D01*
X32235423Y-38927677D01*
X32235421Y-38927676D01*
X32116143Y-38908785D01*
X32110000Y-38907812D01*
X32103857Y-38908785D01*
X31984579Y-38927676D01*
X31984577Y-38927677D01*
X31978438Y-38928649D01*
X31961587Y-38937235D01*
X31880094Y-38978758D01*
X31859755Y-38989121D01*
X31765567Y-39083309D01*
X31762745Y-39088848D01*
X31762744Y-39088849D01*
X31745627Y-39122443D01*
X31705095Y-39201992D01*
X31704123Y-39208131D01*
X31704122Y-39208133D01*
X31687883Y-39310665D01*
X31684258Y-39333554D01*
X31705095Y-39465116D01*
X31707917Y-39470654D01*
X31711756Y-39478189D01*
X31718341Y-39531825D01*
X31688909Y-39577146D01*
X31641366Y-39593054D01*
X31308375Y-39593054D01*
X31304240Y-39592946D01*
X31269827Y-39591142D01*
X31269825Y-39591142D01*
X31261538Y-39590708D01*
X31253788Y-39593683D01*
X31253787Y-39593683D01*
X31237288Y-39600016D01*
X31225403Y-39603537D01*
X31217136Y-39605294D01*
X31199994Y-39608938D01*
X31193276Y-39613819D01*
X31193274Y-39613820D01*
X31192664Y-39614263D01*
X31174544Y-39624101D01*
X31173843Y-39624370D01*
X31173842Y-39624371D01*
X31166088Y-39627347D01*
X31147720Y-39645715D01*
X31138294Y-39653766D01*
X31117281Y-39669033D01*
X31113130Y-39676223D01*
X31112751Y-39676879D01*
X31100196Y-39693239D01*
X30185870Y-40607566D01*
X30182870Y-40610414D01*
X30151085Y-40639033D01*
X30147707Y-40646621D01*
X30142828Y-40653336D01*
X30140353Y-40651538D01*
X30112394Y-40680486D01*
X30058650Y-40686131D01*
X30021906Y-40665341D01*
X29913639Y-40557075D01*
X29890801Y-40508099D01*
X29890500Y-40501213D01*
X29890500Y-38591929D01*
X29890608Y-38587794D01*
X29892412Y-38553381D01*
X29892412Y-38553379D01*
X29892846Y-38545092D01*
X29889871Y-38537341D01*
X29883538Y-38520842D01*
X29880017Y-38508957D01*
X29876342Y-38491670D01*
X29874616Y-38483548D01*
X29869734Y-38476828D01*
X29869291Y-38476218D01*
X29859453Y-38458098D01*
X29859184Y-38457397D01*
X29859183Y-38457396D01*
X29856207Y-38449642D01*
X29837839Y-38431274D01*
X29829788Y-38421848D01*
X29819402Y-38407553D01*
X29814521Y-38400835D01*
X29807334Y-38396685D01*
X29807330Y-38396682D01*
X29806676Y-38396305D01*
X29790317Y-38383752D01*
X29563639Y-38157075D01*
X29540801Y-38108098D01*
X29540500Y-38101213D01*
X29540500Y-35801228D01*
X31850000Y-35801228D01*
X31850286Y-35805970D01*
X31863772Y-35917418D01*
X31866026Y-35926594D01*
X31919126Y-36067119D01*
X31923508Y-36075501D01*
X32008591Y-36199297D01*
X32014851Y-36206397D01*
X32127009Y-36306326D01*
X32134768Y-36311719D01*
X32267537Y-36382017D01*
X32276354Y-36385401D01*
X32336491Y-36400506D01*
X32347785Y-36399339D01*
X32349592Y-36397474D01*
X32350000Y-36395563D01*
X32350000Y-36389998D01*
X32670000Y-36389998D01*
X32673884Y-36400669D01*
X32676325Y-36402079D01*
X32677904Y-36402030D01*
X32737112Y-36387816D01*
X32745981Y-36384518D01*
X32879465Y-36315622D01*
X32887288Y-36310305D01*
X33000489Y-36211554D01*
X33006818Y-36204524D01*
X33093195Y-36081623D01*
X33097661Y-36073294D01*
X33152229Y-35933334D01*
X33154582Y-35924169D01*
X33169662Y-35809628D01*
X33170000Y-35804469D01*
X33170000Y-35803640D01*
X38849500Y-35803640D01*
X38855365Y-35852102D01*
X38863269Y-35917418D01*
X38863855Y-35922262D01*
X38865537Y-35926713D01*
X38918508Y-36066895D01*
X38920364Y-36071808D01*
X38959660Y-36128984D01*
X39007984Y-36199297D01*
X39010913Y-36203559D01*
X39130275Y-36309906D01*
X39271560Y-36384713D01*
X39276175Y-36385872D01*
X39276177Y-36385873D01*
X39322363Y-36397474D01*
X39426609Y-36423659D01*
X39431369Y-36423684D01*
X39431370Y-36423684D01*
X39503939Y-36424064D01*
X39586474Y-36424496D01*
X39686400Y-36400506D01*
X39737288Y-36388289D01*
X39737290Y-36388288D01*
X39741923Y-36387176D01*
X39746155Y-36384992D01*
X39746157Y-36384991D01*
X39816270Y-36348802D01*
X39883983Y-36313853D01*
X39913791Y-36287850D01*
X40000861Y-36211894D01*
X40000863Y-36211892D01*
X40004452Y-36208761D01*
X40079510Y-36101964D01*
X40093639Y-36081861D01*
X40093640Y-36081858D01*
X40096376Y-36077966D01*
X40099077Y-36071040D01*
X40152717Y-35933459D01*
X40154448Y-35929020D01*
X40170500Y-35807094D01*
X40170500Y-34923468D01*
X40161580Y-34849755D01*
X40156717Y-34809570D01*
X40156716Y-34809567D01*
X40156145Y-34804846D01*
X40114010Y-34693339D01*
X40101320Y-34659756D01*
X40101319Y-34659755D01*
X40099636Y-34655300D01*
X40022015Y-34542359D01*
X40011787Y-34527477D01*
X40011785Y-34527475D01*
X40009087Y-34523549D01*
X39967577Y-34486565D01*
X39893281Y-34420370D01*
X39893280Y-34420369D01*
X39889725Y-34417202D01*
X39748440Y-34342395D01*
X39743825Y-34341236D01*
X39743823Y-34341235D01*
X39670916Y-34322922D01*
X39593391Y-34303449D01*
X39588631Y-34303424D01*
X39588630Y-34303424D01*
X39516061Y-34303044D01*
X39433526Y-34302612D01*
X39339948Y-34325078D01*
X39282712Y-34338819D01*
X39282710Y-34338820D01*
X39278077Y-34339932D01*
X39273845Y-34342116D01*
X39273843Y-34342117D01*
X39228240Y-34365655D01*
X39136017Y-34413255D01*
X39127861Y-34420370D01*
X39048411Y-34489679D01*
X39015548Y-34518347D01*
X39008897Y-34527811D01*
X38936662Y-34630591D01*
X38923624Y-34649142D01*
X38921896Y-34653574D01*
X38921895Y-34653576D01*
X38905659Y-34695219D01*
X38865552Y-34798088D01*
X38849500Y-34920014D01*
X38849500Y-35803640D01*
X33170000Y-35803640D01*
X33170000Y-35537484D01*
X33166116Y-35526813D01*
X33160472Y-35523554D01*
X32683930Y-35523554D01*
X32673259Y-35527438D01*
X32670000Y-35533082D01*
X32670000Y-36389998D01*
X32350000Y-36389998D01*
X32350000Y-35537484D01*
X32346116Y-35526813D01*
X32340472Y-35523554D01*
X31863930Y-35523554D01*
X31853259Y-35527438D01*
X31850000Y-35533082D01*
X31850000Y-35801228D01*
X29540500Y-35801228D01*
X29540500Y-35189624D01*
X31850000Y-35189624D01*
X31853884Y-35200295D01*
X31859528Y-35203554D01*
X32336070Y-35203554D01*
X32346741Y-35199670D01*
X32350000Y-35194026D01*
X32350000Y-35189624D01*
X32670000Y-35189624D01*
X32673884Y-35200295D01*
X32679528Y-35203554D01*
X33156070Y-35203554D01*
X33166741Y-35199670D01*
X33170000Y-35194026D01*
X33170000Y-34925880D01*
X33169714Y-34921138D01*
X33156228Y-34809690D01*
X33153974Y-34800514D01*
X33100874Y-34659989D01*
X33096492Y-34651607D01*
X33011409Y-34527811D01*
X33005149Y-34520711D01*
X32892991Y-34420782D01*
X32885232Y-34415389D01*
X32752463Y-34345091D01*
X32743646Y-34341707D01*
X32683509Y-34326602D01*
X32672215Y-34327769D01*
X32670408Y-34329634D01*
X32670000Y-34331545D01*
X32670000Y-35189624D01*
X32350000Y-35189624D01*
X32350000Y-34337110D01*
X32346116Y-34326439D01*
X32343675Y-34325029D01*
X32342096Y-34325078D01*
X32282888Y-34339292D01*
X32274019Y-34342590D01*
X32140535Y-34411486D01*
X32132712Y-34416803D01*
X32019511Y-34515554D01*
X32013182Y-34522584D01*
X31926805Y-34645485D01*
X31922339Y-34653814D01*
X31867771Y-34793774D01*
X31865418Y-34802939D01*
X31850338Y-34917480D01*
X31850000Y-34922639D01*
X31850000Y-35189624D01*
X29540500Y-35189624D01*
X29540500Y-32407793D01*
X29558982Y-32357013D01*
X29583635Y-32337404D01*
X29694700Y-32280813D01*
X29694703Y-32280811D01*
X29700245Y-32277987D01*
X29794433Y-32183799D01*
X29854905Y-32065116D01*
X29862052Y-32019995D01*
X29874769Y-31939697D01*
X29875742Y-31933554D01*
X29859395Y-31830341D01*
X29855878Y-31808133D01*
X29855877Y-31808131D01*
X29854905Y-31801992D01*
X29794433Y-31683309D01*
X29700245Y-31589121D01*
X29681230Y-31579432D01*
X29607749Y-31541992D01*
X29581562Y-31528649D01*
X29575423Y-31527677D01*
X29575421Y-31527676D01*
X29456143Y-31508785D01*
X29450000Y-31507812D01*
X29443857Y-31508785D01*
X29324579Y-31527676D01*
X29324577Y-31527677D01*
X29318438Y-31528649D01*
X29312899Y-31531471D01*
X29312900Y-31531471D01*
X29305365Y-31535310D01*
X29251729Y-31541895D01*
X29206408Y-31512463D01*
X29190500Y-31464920D01*
X29190500Y-30301921D01*
X29190608Y-30297786D01*
X29192412Y-30263379D01*
X29192412Y-30263377D01*
X29192846Y-30255091D01*
X29183537Y-30230841D01*
X29180016Y-30218953D01*
X29176342Y-30201668D01*
X29174616Y-30193548D01*
X29169290Y-30186217D01*
X29159451Y-30168096D01*
X29156206Y-30159642D01*
X29137842Y-30141278D01*
X29129795Y-30131858D01*
X29114521Y-30110835D01*
X29106671Y-30106303D01*
X29090314Y-30093750D01*
X28736945Y-29740381D01*
X28714107Y-29691405D01*
X28724116Y-29645500D01*
X28757604Y-29586550D01*
X28758892Y-29582678D01*
X28818935Y-29402184D01*
X28818936Y-29402179D01*
X28820156Y-29398512D01*
X28821937Y-29384418D01*
X28844715Y-29204102D01*
X28844993Y-29201905D01*
X28845389Y-29173554D01*
X28826051Y-28976331D01*
X28768774Y-28786619D01*
X28766963Y-28783214D01*
X28766961Y-28783208D01*
X28677551Y-28615054D01*
X28675739Y-28611646D01*
X28668919Y-28603283D01*
X28571199Y-28483468D01*
X28550490Y-28458076D01*
X28538415Y-28448086D01*
X28400773Y-28334219D01*
X28400772Y-28334218D01*
X28397798Y-28331758D01*
X28385102Y-28324893D01*
X28341685Y-28301418D01*
X28223479Y-28237504D01*
X28034172Y-28178904D01*
X27837089Y-28158190D01*
X27833243Y-28158540D01*
X27833242Y-28158540D01*
X27827133Y-28159096D01*
X27639735Y-28176150D01*
X27636028Y-28177241D01*
X27453338Y-28231010D01*
X27453335Y-28231011D01*
X27449629Y-28232102D01*
X27274010Y-28323913D01*
X27271003Y-28326331D01*
X27271001Y-28326332D01*
X27205787Y-28378766D01*
X27119570Y-28448086D01*
X26992189Y-28599893D01*
X26990327Y-28603281D01*
X26990325Y-28603283D01*
X26983854Y-28615054D01*
X26896720Y-28773550D01*
X26882356Y-28818833D01*
X26874802Y-28842645D01*
X26841831Y-28885460D01*
X26789052Y-28897064D01*
X26741162Y-28872028D01*
X26720500Y-28818758D01*
X26720500Y-26992588D01*
X26738982Y-26941808D01*
X26785782Y-26914788D01*
X26839000Y-26924172D01*
X26873736Y-26965568D01*
X26875439Y-26970810D01*
X26885915Y-27007344D01*
X26976498Y-27183599D01*
X27099590Y-27338902D01*
X27250504Y-27467340D01*
X27423490Y-27564019D01*
X27427152Y-27565209D01*
X27427157Y-27565211D01*
X27549241Y-27604878D01*
X27611960Y-27625256D01*
X27615797Y-27625714D01*
X27615799Y-27625714D01*
X27804892Y-27648262D01*
X27804895Y-27648262D01*
X27808735Y-27648720D01*
X28006320Y-27633517D01*
X28197190Y-27580225D01*
X28363563Y-27496184D01*
X28370619Y-27492620D01*
X28370621Y-27492619D01*
X28374073Y-27490875D01*
X28530232Y-27368870D01*
X28558707Y-27335881D01*
X28657196Y-27221782D01*
X28657200Y-27221777D01*
X28659720Y-27218857D01*
X28661626Y-27215501D01*
X28661630Y-27215496D01*
X28755695Y-27049910D01*
X28757604Y-27046550D01*
X28758824Y-27042883D01*
X28818935Y-26862184D01*
X28818936Y-26862179D01*
X28820156Y-26858512D01*
X28844993Y-26661905D01*
X28845389Y-26633554D01*
X28826051Y-26436331D01*
X28768774Y-26246619D01*
X28766963Y-26243214D01*
X28766961Y-26243208D01*
X28677551Y-26075054D01*
X28675739Y-26071646D01*
X28671737Y-26066738D01*
X28587585Y-25963559D01*
X28550490Y-25918076D01*
X28538415Y-25908086D01*
X28400773Y-25794219D01*
X28400772Y-25794218D01*
X28397798Y-25791758D01*
X28379979Y-25782123D01*
X28291256Y-25734151D01*
X28223479Y-25697504D01*
X28034172Y-25638904D01*
X27837089Y-25618190D01*
X27833243Y-25618540D01*
X27833242Y-25618540D01*
X27785487Y-25622886D01*
X27639735Y-25636150D01*
X27636028Y-25637241D01*
X27453338Y-25691010D01*
X27453335Y-25691011D01*
X27449629Y-25692102D01*
X27274010Y-25783913D01*
X27271003Y-25786331D01*
X27271001Y-25786332D01*
X27261192Y-25794219D01*
X27119570Y-25908086D01*
X26992189Y-26059893D01*
X26990327Y-26063281D01*
X26990325Y-26063283D01*
X26924299Y-26183384D01*
X26896720Y-26233550D01*
X26895551Y-26237234D01*
X26895551Y-26237235D01*
X26874802Y-26302645D01*
X26841831Y-26345460D01*
X26789052Y-26357064D01*
X26741162Y-26332028D01*
X26720500Y-26278758D01*
X26720500Y-24120767D01*
X26722510Y-24103058D01*
X26722634Y-24102519D01*
X26724628Y-24093851D01*
X26722665Y-24085173D01*
X26722681Y-24076279D01*
X26723247Y-24076280D01*
X26722710Y-24068328D01*
X26736763Y-23907787D01*
X26739155Y-23894226D01*
X26742017Y-23883549D01*
X26785640Y-23720770D01*
X26790349Y-23707833D01*
X26790357Y-23707817D01*
X26866244Y-23545088D01*
X26873128Y-23533164D01*
X26976134Y-23386059D01*
X26984986Y-23375511D01*
X27111962Y-23248535D01*
X27122510Y-23239684D01*
X27269607Y-23136683D01*
X27281531Y-23129798D01*
X27444280Y-23053900D01*
X27457217Y-23049191D01*
X27630677Y-23002705D01*
X27644228Y-23000315D01*
X27804357Y-22986296D01*
X27812157Y-22986838D01*
X27812158Y-22986174D01*
X27821052Y-22986189D01*
X27829723Y-22988182D01*
X27838400Y-22986218D01*
X27838595Y-22986174D01*
X27839350Y-22986003D01*
X27856790Y-22984054D01*
X30590500Y-22984054D01*
X30641280Y-23002536D01*
G37*
G04 #@! TD.AperFunction*
G04 #@! TA.AperFunction,Conductor*
G36*
X26839000Y-29464172D02*
G01*
X26873736Y-29505568D01*
X26875439Y-29510810D01*
X26885915Y-29547344D01*
X26976498Y-29723599D01*
X27099590Y-29878902D01*
X27250504Y-30007340D01*
X27423490Y-30104019D01*
X27427152Y-30105209D01*
X27427157Y-30105211D01*
X27549241Y-30144878D01*
X27611960Y-30165256D01*
X27615797Y-30165714D01*
X27615799Y-30165714D01*
X27804892Y-30188262D01*
X27804895Y-30188262D01*
X27808735Y-30188720D01*
X28006320Y-30173517D01*
X28197190Y-30120225D01*
X28276169Y-30080330D01*
X28305178Y-30065677D01*
X28358837Y-30059278D01*
X28396658Y-30080330D01*
X28686361Y-30370033D01*
X28709199Y-30419009D01*
X28709500Y-30425894D01*
X28709500Y-31048178D01*
X28691018Y-31098958D01*
X28644371Y-31125457D01*
X28066125Y-31703703D01*
X28061325Y-31713997D01*
X28063011Y-31720291D01*
X28641109Y-32298389D01*
X28663886Y-32309010D01*
X28702098Y-32347222D01*
X28709500Y-32380609D01*
X28709500Y-33588178D01*
X28691018Y-33638958D01*
X28644371Y-33665457D01*
X28066125Y-34243703D01*
X28061325Y-34253997D01*
X28063011Y-34260291D01*
X28641109Y-34838389D01*
X28663886Y-34849010D01*
X28702098Y-34887222D01*
X28709500Y-34920609D01*
X28709500Y-36051184D01*
X28691018Y-36101964D01*
X28644218Y-36128984D01*
X28591000Y-36119600D01*
X28569279Y-36101114D01*
X28552930Y-36081067D01*
X28552927Y-36081064D01*
X28550490Y-36078076D01*
X28547378Y-36075501D01*
X28400773Y-35954219D01*
X28400772Y-35954218D01*
X28397798Y-35951758D01*
X28379979Y-35942123D01*
X28334509Y-35917538D01*
X28223479Y-35857504D01*
X28034172Y-35798904D01*
X27837089Y-35778190D01*
X27833243Y-35778540D01*
X27833242Y-35778540D01*
X27785487Y-35782886D01*
X27639735Y-35796150D01*
X27636028Y-35797241D01*
X27453338Y-35851010D01*
X27453335Y-35851011D01*
X27449629Y-35852102D01*
X27274010Y-35943913D01*
X27271003Y-35946331D01*
X27271001Y-35946332D01*
X27261192Y-35954219D01*
X27119570Y-36068086D01*
X26992189Y-36219893D01*
X26990327Y-36223281D01*
X26990325Y-36223283D01*
X26950821Y-36295141D01*
X26896720Y-36393550D01*
X26895551Y-36397234D01*
X26895551Y-36397235D01*
X26874802Y-36462645D01*
X26841831Y-36505460D01*
X26789052Y-36517064D01*
X26741162Y-36492028D01*
X26720500Y-36438758D01*
X26720500Y-35074548D01*
X27240774Y-35074548D01*
X27242112Y-35079542D01*
X27247844Y-35084421D01*
X27254166Y-35088815D01*
X27420324Y-35181677D01*
X27427358Y-35184751D01*
X27608394Y-35243572D01*
X27615907Y-35245224D01*
X27804903Y-35267760D01*
X27812604Y-35267921D01*
X28002381Y-35253319D01*
X28009952Y-35251985D01*
X28193293Y-35200794D01*
X28200454Y-35198016D01*
X28370350Y-35112196D01*
X28376852Y-35108070D01*
X28411566Y-35080949D01*
X28417585Y-35071317D01*
X28416946Y-35066774D01*
X27839851Y-34489679D01*
X27829557Y-34484879D01*
X27823263Y-34486565D01*
X27245574Y-35064254D01*
X27240774Y-35074548D01*
X26720500Y-35074548D01*
X26720500Y-34610775D01*
X26738982Y-34559995D01*
X26785782Y-34532975D01*
X26839000Y-34542359D01*
X26875440Y-34588999D01*
X26885319Y-34623452D01*
X26888146Y-34630591D01*
X26975157Y-34799896D01*
X26979316Y-34806350D01*
X27002328Y-34835384D01*
X27011999Y-34841333D01*
X27016631Y-34840649D01*
X27593875Y-34263405D01*
X27598675Y-34253111D01*
X27596989Y-34246817D01*
X27019675Y-33669503D01*
X27009381Y-33664703D01*
X27004485Y-33666015D01*
X26995089Y-33677213D01*
X26990741Y-33683563D01*
X26899043Y-33850360D01*
X26896012Y-33857432D01*
X26874802Y-33924296D01*
X26841831Y-33967111D01*
X26789052Y-33978715D01*
X26741162Y-33953679D01*
X26720500Y-33900409D01*
X26720500Y-33435283D01*
X27241991Y-33435283D01*
X27242722Y-33440002D01*
X27820149Y-34017429D01*
X27830443Y-34022229D01*
X27836737Y-34020543D01*
X28413710Y-33443570D01*
X28418510Y-33433276D01*
X28417224Y-33428477D01*
X28400493Y-33414636D01*
X28394120Y-33410338D01*
X28226680Y-33319803D01*
X28219599Y-33316826D01*
X28037765Y-33260540D01*
X28030224Y-33258992D01*
X27840928Y-33239096D01*
X27833238Y-33239042D01*
X27643678Y-33256293D01*
X27636122Y-33257734D01*
X27453526Y-33311475D01*
X27446389Y-33314359D01*
X27277714Y-33402541D01*
X27271270Y-33406757D01*
X27247875Y-33425567D01*
X27241991Y-33435283D01*
X26720500Y-33435283D01*
X26720500Y-32534548D01*
X27240774Y-32534548D01*
X27242112Y-32539542D01*
X27247844Y-32544421D01*
X27254166Y-32548815D01*
X27420324Y-32641677D01*
X27427358Y-32644751D01*
X27608394Y-32703572D01*
X27615907Y-32705224D01*
X27804903Y-32727760D01*
X27812604Y-32727921D01*
X28002381Y-32713319D01*
X28009952Y-32711985D01*
X28193293Y-32660794D01*
X28200454Y-32658016D01*
X28370350Y-32572196D01*
X28376852Y-32568070D01*
X28411566Y-32540949D01*
X28417585Y-32531317D01*
X28416946Y-32526774D01*
X27839851Y-31949679D01*
X27829557Y-31944879D01*
X27823263Y-31946565D01*
X27245574Y-32524254D01*
X27240774Y-32534548D01*
X26720500Y-32534548D01*
X26720500Y-32070775D01*
X26738982Y-32019995D01*
X26785782Y-31992975D01*
X26839000Y-32002359D01*
X26875440Y-32048999D01*
X26885319Y-32083452D01*
X26888146Y-32090591D01*
X26975157Y-32259896D01*
X26979316Y-32266350D01*
X27002328Y-32295384D01*
X27011999Y-32301333D01*
X27016631Y-32300649D01*
X27593875Y-31723405D01*
X27598675Y-31713111D01*
X27596989Y-31706817D01*
X27019675Y-31129503D01*
X27009381Y-31124703D01*
X27004485Y-31126015D01*
X26995089Y-31137213D01*
X26990741Y-31143563D01*
X26899043Y-31310360D01*
X26896012Y-31317432D01*
X26874802Y-31384296D01*
X26841831Y-31427111D01*
X26789052Y-31438715D01*
X26741162Y-31413679D01*
X26720500Y-31360409D01*
X26720500Y-30895283D01*
X27241991Y-30895283D01*
X27242722Y-30900002D01*
X27820149Y-31477429D01*
X27830443Y-31482229D01*
X27836737Y-31480543D01*
X28413710Y-30903570D01*
X28418510Y-30893276D01*
X28417224Y-30888477D01*
X28400493Y-30874636D01*
X28394120Y-30870338D01*
X28226680Y-30779803D01*
X28219599Y-30776826D01*
X28037765Y-30720540D01*
X28030224Y-30718992D01*
X27840928Y-30699096D01*
X27833238Y-30699042D01*
X27643678Y-30716293D01*
X27636122Y-30717734D01*
X27453526Y-30771475D01*
X27446389Y-30774359D01*
X27277714Y-30862541D01*
X27271270Y-30866757D01*
X27247875Y-30885567D01*
X27241991Y-30895283D01*
X26720500Y-30895283D01*
X26720500Y-29532588D01*
X26738982Y-29481808D01*
X26785782Y-29454788D01*
X26839000Y-29464172D01*
G37*
G04 #@! TD.AperFunction*
G04 #@! TA.AperFunction,Conductor*
G36*
X44159576Y-26935060D02*
G01*
X44179500Y-26987510D01*
X44179500Y-28818833D01*
X44161018Y-28869613D01*
X44114218Y-28896633D01*
X44061000Y-28887249D01*
X44024872Y-28841667D01*
X44009426Y-28790507D01*
X44006498Y-28783403D01*
X43917138Y-28615341D01*
X43912873Y-28608923D01*
X43898333Y-28591094D01*
X43888579Y-28585280D01*
X43883770Y-28586058D01*
X43306125Y-29163703D01*
X43301325Y-29173997D01*
X43303011Y-29180291D01*
X43881110Y-29758390D01*
X43891404Y-29763190D01*
X43896499Y-29761825D01*
X43896785Y-29761494D01*
X43901219Y-29755208D01*
X43995236Y-29589707D01*
X43998365Y-29582678D01*
X44025539Y-29500991D01*
X44059105Y-29458640D01*
X44112041Y-29447775D01*
X44159576Y-29473477D01*
X44179500Y-29525927D01*
X44179500Y-31357106D01*
X44161018Y-31407886D01*
X44114218Y-31434906D01*
X44061000Y-31425522D01*
X44024872Y-31379939D01*
X44009891Y-31330319D01*
X44008774Y-31326619D01*
X44006963Y-31323214D01*
X44006961Y-31323208D01*
X43917551Y-31155054D01*
X43915739Y-31151646D01*
X43906154Y-31139893D01*
X43792930Y-31001068D01*
X43790490Y-30998076D01*
X43778415Y-30988086D01*
X43640773Y-30874219D01*
X43640772Y-30874218D01*
X43637798Y-30871758D01*
X43619979Y-30862123D01*
X43590711Y-30846298D01*
X43463479Y-30777504D01*
X43274172Y-30718904D01*
X43077089Y-30698190D01*
X43073243Y-30698540D01*
X43073242Y-30698540D01*
X43067133Y-30699096D01*
X42879735Y-30716150D01*
X42876028Y-30717241D01*
X42693338Y-30771010D01*
X42693335Y-30771011D01*
X42689629Y-30772102D01*
X42514010Y-30863913D01*
X42511003Y-30866331D01*
X42511001Y-30866332D01*
X42469124Y-30900002D01*
X42359570Y-30988086D01*
X42314338Y-31041992D01*
X42285507Y-31076351D01*
X42238707Y-31103371D01*
X42185489Y-31093987D01*
X42150753Y-31052591D01*
X42145989Y-31025571D01*
X42145989Y-29994548D01*
X42480774Y-29994548D01*
X42482112Y-29999542D01*
X42487844Y-30004421D01*
X42494166Y-30008815D01*
X42660324Y-30101677D01*
X42667358Y-30104751D01*
X42848394Y-30163572D01*
X42855907Y-30165224D01*
X43044903Y-30187760D01*
X43052604Y-30187921D01*
X43242381Y-30173319D01*
X43249952Y-30171985D01*
X43433293Y-30120794D01*
X43440454Y-30118016D01*
X43610350Y-30032196D01*
X43616852Y-30028070D01*
X43651566Y-30000949D01*
X43657585Y-29991317D01*
X43656946Y-29986774D01*
X43079851Y-29409679D01*
X43069557Y-29404879D01*
X43063263Y-29406565D01*
X42485574Y-29984254D01*
X42480774Y-29994548D01*
X42145989Y-29994548D01*
X42145989Y-29837469D01*
X42164471Y-29786689D01*
X42211271Y-29759669D01*
X42233958Y-29763997D01*
X42256631Y-29760649D01*
X42833875Y-29183405D01*
X42838675Y-29173111D01*
X42836989Y-29166817D01*
X42259675Y-28589503D01*
X42249381Y-28584703D01*
X42245435Y-28585760D01*
X42191601Y-28581050D01*
X42153390Y-28542838D01*
X42145989Y-28509452D01*
X42145989Y-28355283D01*
X42481991Y-28355283D01*
X42482722Y-28360002D01*
X43060149Y-28937429D01*
X43070443Y-28942229D01*
X43076737Y-28940543D01*
X43653710Y-28363570D01*
X43658510Y-28353276D01*
X43657224Y-28348477D01*
X43640493Y-28334636D01*
X43634120Y-28330338D01*
X43466680Y-28239803D01*
X43459599Y-28236826D01*
X43277765Y-28180540D01*
X43270224Y-28178992D01*
X43080928Y-28159096D01*
X43073238Y-28159042D01*
X42883678Y-28176293D01*
X42876122Y-28177734D01*
X42693526Y-28231475D01*
X42686389Y-28234359D01*
X42517714Y-28322541D01*
X42511270Y-28326757D01*
X42487875Y-28345567D01*
X42481991Y-28355283D01*
X42145989Y-28355283D01*
X42145989Y-27925031D01*
X42164471Y-27874251D01*
X42169128Y-27869170D01*
X42499866Y-27538432D01*
X42548842Y-27515594D01*
X42594268Y-27525332D01*
X42663490Y-27564019D01*
X42667152Y-27565209D01*
X42667157Y-27565211D01*
X42789241Y-27604878D01*
X42851960Y-27625256D01*
X42855797Y-27625714D01*
X42855799Y-27625714D01*
X43044892Y-27648262D01*
X43044895Y-27648262D01*
X43048735Y-27648720D01*
X43246320Y-27633517D01*
X43437190Y-27580225D01*
X43603563Y-27496184D01*
X43610619Y-27492620D01*
X43610621Y-27492619D01*
X43614073Y-27490875D01*
X43770232Y-27368870D01*
X43798707Y-27335881D01*
X43897196Y-27221782D01*
X43897200Y-27221777D01*
X43899720Y-27218857D01*
X43901626Y-27215501D01*
X43901630Y-27215496D01*
X43995695Y-27049910D01*
X43997604Y-27046550D01*
X44025539Y-26962574D01*
X44059105Y-26920224D01*
X44112040Y-26909357D01*
X44159576Y-26935060D01*
G37*
G04 #@! TD.AperFunction*
G04 #@! TA.AperFunction,Conductor*
G36*
X43060498Y-22986063D02*
G01*
X43069713Y-22988182D01*
X43078391Y-22986218D01*
X43087285Y-22986234D01*
X43087284Y-22986802D01*
X43095237Y-22986262D01*
X43154103Y-22991412D01*
X43255772Y-23000308D01*
X43269333Y-23002699D01*
X43442785Y-23049176D01*
X43455725Y-23053886D01*
X43618473Y-23129778D01*
X43630396Y-23136662D01*
X43777496Y-23239667D01*
X43788038Y-23248513D01*
X43915017Y-23375497D01*
X43923864Y-23386041D01*
X44026860Y-23533142D01*
X44033745Y-23545069D01*
X44109629Y-23707817D01*
X44114339Y-23720757D01*
X44160809Y-23894211D01*
X44163200Y-23907772D01*
X44177219Y-24068075D01*
X44176690Y-24075693D01*
X44177383Y-24075694D01*
X44177367Y-24084588D01*
X44175372Y-24093260D01*
X44177335Y-24101936D01*
X44177553Y-24102899D01*
X44179500Y-24120332D01*
X44179500Y-26277106D01*
X44161018Y-26327886D01*
X44114218Y-26354906D01*
X44061000Y-26345522D01*
X44024872Y-26299939D01*
X44009891Y-26250319D01*
X44008774Y-26246619D01*
X44006963Y-26243214D01*
X44006961Y-26243208D01*
X43917551Y-26075054D01*
X43915739Y-26071646D01*
X43911737Y-26066738D01*
X43827585Y-25963559D01*
X43790490Y-25918076D01*
X43778415Y-25908086D01*
X43640773Y-25794219D01*
X43640772Y-25794218D01*
X43637798Y-25791758D01*
X43619979Y-25782123D01*
X43531256Y-25734151D01*
X43463479Y-25697504D01*
X43274172Y-25638904D01*
X43077089Y-25618190D01*
X43073243Y-25618540D01*
X43073242Y-25618540D01*
X43025487Y-25622886D01*
X42879735Y-25636150D01*
X42876028Y-25637241D01*
X42693338Y-25691010D01*
X42693335Y-25691011D01*
X42689629Y-25692102D01*
X42514010Y-25783913D01*
X42511003Y-25786331D01*
X42511001Y-25786332D01*
X42501192Y-25794219D01*
X42359570Y-25908086D01*
X42232189Y-26059893D01*
X42230327Y-26063281D01*
X42230325Y-26063283D01*
X42164299Y-26183384D01*
X42136720Y-26233550D01*
X42076800Y-26422443D01*
X42054710Y-26619377D01*
X42071292Y-26816851D01*
X42125915Y-27007344D01*
X42127679Y-27010776D01*
X42179544Y-27111695D01*
X42186317Y-27165308D01*
X42165141Y-27203667D01*
X41787849Y-27580959D01*
X41782495Y-27585068D01*
X41782553Y-27585133D01*
X41706574Y-27653544D01*
X41703197Y-27661130D01*
X41703195Y-27661132D01*
X41686129Y-27699464D01*
X41685574Y-27700486D01*
X41685393Y-27700925D01*
X41685256Y-27701361D01*
X41685076Y-27701830D01*
X41683600Y-27705145D01*
X41679574Y-27711344D01*
X41679067Y-27714544D01*
X41678254Y-27715479D01*
X41678875Y-27715756D01*
X41664989Y-27746945D01*
X41664989Y-27797209D01*
X41664897Y-27798374D01*
X41664909Y-27798826D01*
X41664962Y-27799290D01*
X41664989Y-27799805D01*
X41664989Y-27803424D01*
X41663832Y-27810729D01*
X41664670Y-27813858D01*
X41664307Y-27815047D01*
X41664989Y-27815047D01*
X41664989Y-28035169D01*
X41646507Y-28085949D01*
X41599707Y-28112969D01*
X41546489Y-28103585D01*
X41526757Y-28087434D01*
X41524087Y-28083549D01*
X41520535Y-28080384D01*
X41520533Y-28080382D01*
X41408281Y-27980370D01*
X41408280Y-27980369D01*
X41404725Y-27977202D01*
X41263440Y-27902395D01*
X41258825Y-27901236D01*
X41258823Y-27901235D01*
X41151395Y-27874251D01*
X41108391Y-27863449D01*
X41103631Y-27863424D01*
X41103630Y-27863424D01*
X41031061Y-27863044D01*
X40948526Y-27862612D01*
X40848958Y-27886516D01*
X40797712Y-27898819D01*
X40797710Y-27898820D01*
X40793077Y-27899932D01*
X40788845Y-27902116D01*
X40788843Y-27902117D01*
X40783986Y-27904624D01*
X40651017Y-27973255D01*
X40530548Y-28078347D01*
X40506215Y-28112969D01*
X40458726Y-28180540D01*
X40438624Y-28209142D01*
X40436896Y-28213574D01*
X40436895Y-28213576D01*
X40428792Y-28234359D01*
X40391505Y-28329995D01*
X40355840Y-28370591D01*
X40302422Y-28378766D01*
X40256248Y-28350691D01*
X40238902Y-28301418D01*
X40236977Y-27046550D01*
X40234964Y-25734150D01*
X40253369Y-25683343D01*
X40300126Y-25656251D01*
X40353359Y-25665553D01*
X40387864Y-25706105D01*
X40417266Y-25783913D01*
X40435364Y-25831808D01*
X40525913Y-25963559D01*
X40529471Y-25966729D01*
X40634037Y-26059893D01*
X40645275Y-26069906D01*
X40786560Y-26144713D01*
X40791175Y-26145872D01*
X40791177Y-26145873D01*
X40864084Y-26164186D01*
X40941609Y-26183659D01*
X40946369Y-26183684D01*
X40946370Y-26183684D01*
X41018939Y-26184064D01*
X41101474Y-26184496D01*
X41201042Y-26160592D01*
X41252288Y-26148289D01*
X41252290Y-26148288D01*
X41256923Y-26147176D01*
X41261155Y-26144992D01*
X41261157Y-26144991D01*
X41331270Y-26108802D01*
X41398983Y-26073853D01*
X41519452Y-25968761D01*
X41611376Y-25837966D01*
X41669448Y-25689020D01*
X41685500Y-25567094D01*
X41685500Y-24283468D01*
X41674821Y-24195221D01*
X41671717Y-24169570D01*
X41671716Y-24169567D01*
X41671145Y-24164846D01*
X41647737Y-24102899D01*
X41616320Y-24019756D01*
X41616319Y-24019755D01*
X41614636Y-24015300D01*
X41524087Y-23883549D01*
X41404725Y-23777202D01*
X41263440Y-23702395D01*
X41258825Y-23701236D01*
X41258823Y-23701235D01*
X41185915Y-23682922D01*
X41108391Y-23663449D01*
X41103631Y-23663424D01*
X41103630Y-23663424D01*
X41031061Y-23663044D01*
X40948526Y-23662612D01*
X40848958Y-23686516D01*
X40797712Y-23698819D01*
X40797710Y-23698820D01*
X40793077Y-23699932D01*
X40788845Y-23702116D01*
X40788843Y-23702117D01*
X40752700Y-23720772D01*
X40651017Y-23773255D01*
X40530548Y-23878347D01*
X40438624Y-24009142D01*
X40436896Y-24013574D01*
X40436895Y-24013576D01*
X40410758Y-24080615D01*
X40398660Y-24111645D01*
X40385090Y-24146449D01*
X40349424Y-24187047D01*
X40296006Y-24195221D01*
X40249832Y-24167146D01*
X40232486Y-24117873D01*
X40231788Y-23662612D01*
X40230868Y-23063174D01*
X40249273Y-23012367D01*
X40296030Y-22985275D01*
X40309868Y-22984054D01*
X43042794Y-22984054D01*
X43060498Y-22986063D01*
G37*
G04 #@! TD.AperFunction*
G04 #@! TA.AperFunction,Conductor*
G36*
X42026204Y-31699672D02*
G01*
X42057199Y-31743938D01*
X42059613Y-31757772D01*
X42071292Y-31896851D01*
X42125915Y-32087344D01*
X42216498Y-32263599D01*
X42339590Y-32418902D01*
X42490504Y-32547340D01*
X42663490Y-32644019D01*
X42667152Y-32645209D01*
X42667157Y-32645211D01*
X42789241Y-32684878D01*
X42851960Y-32705256D01*
X42855797Y-32705714D01*
X42855799Y-32705714D01*
X43044892Y-32728262D01*
X43044895Y-32728262D01*
X43048735Y-32728720D01*
X43246320Y-32713517D01*
X43437190Y-32660225D01*
X43587233Y-32584433D01*
X43610619Y-32572620D01*
X43610621Y-32572619D01*
X43614073Y-32570875D01*
X43729748Y-32480500D01*
X43767190Y-32451247D01*
X43767192Y-32451245D01*
X43770232Y-32448870D01*
X43808101Y-32404998D01*
X43897196Y-32301782D01*
X43897200Y-32301777D01*
X43899720Y-32298857D01*
X43901626Y-32295501D01*
X43901630Y-32295496D01*
X43995695Y-32129910D01*
X43997604Y-32126550D01*
X44025539Y-32042574D01*
X44059105Y-32000224D01*
X44112040Y-31989357D01*
X44159576Y-32015060D01*
X44179500Y-32067510D01*
X44179500Y-33898833D01*
X44161018Y-33949613D01*
X44114218Y-33976633D01*
X44061000Y-33967249D01*
X44024872Y-33921667D01*
X44009426Y-33870507D01*
X44006498Y-33863403D01*
X43917138Y-33695341D01*
X43912873Y-33688923D01*
X43898333Y-33671094D01*
X43888579Y-33665280D01*
X43883770Y-33666058D01*
X43306125Y-34243703D01*
X43301325Y-34253997D01*
X43303011Y-34260291D01*
X43881110Y-34838390D01*
X43891404Y-34843190D01*
X43896499Y-34841825D01*
X43896785Y-34841494D01*
X43901219Y-34835208D01*
X43995236Y-34669707D01*
X43998365Y-34662678D01*
X44025539Y-34580991D01*
X44059105Y-34538640D01*
X44112041Y-34527775D01*
X44159576Y-34553477D01*
X44179500Y-34605927D01*
X44179500Y-36437106D01*
X44161018Y-36487886D01*
X44114218Y-36514906D01*
X44061000Y-36505522D01*
X44024872Y-36459939D01*
X44009891Y-36410319D01*
X44008774Y-36406619D01*
X44006963Y-36403214D01*
X44006961Y-36403208D01*
X43917551Y-36235054D01*
X43915739Y-36231646D01*
X43908919Y-36223283D01*
X43792930Y-36081068D01*
X43790490Y-36078076D01*
X43782914Y-36071808D01*
X43640773Y-35954219D01*
X43640772Y-35954218D01*
X43637798Y-35951758D01*
X43619979Y-35942123D01*
X43583246Y-35922262D01*
X43463479Y-35857504D01*
X43274172Y-35798904D01*
X43077089Y-35778190D01*
X43073243Y-35778540D01*
X43073242Y-35778540D01*
X43025487Y-35782886D01*
X42879735Y-35796150D01*
X42876028Y-35797241D01*
X42693338Y-35851010D01*
X42693335Y-35851011D01*
X42689629Y-35852102D01*
X42514010Y-35943913D01*
X42511003Y-35946331D01*
X42511001Y-35946332D01*
X42501192Y-35954219D01*
X42359570Y-36068086D01*
X42232189Y-36219893D01*
X42230327Y-36223281D01*
X42230325Y-36223283D01*
X42223854Y-36235054D01*
X42136720Y-36393550D01*
X42076800Y-36582443D01*
X42054710Y-36779377D01*
X42071292Y-36976851D01*
X42125915Y-37167344D01*
X42216498Y-37343599D01*
X42339590Y-37498902D01*
X42490504Y-37627340D01*
X42493878Y-37629226D01*
X42493880Y-37629227D01*
X42512614Y-37639697D01*
X42663490Y-37724019D01*
X42667152Y-37725209D01*
X42667157Y-37725211D01*
X42789241Y-37764878D01*
X42851960Y-37785256D01*
X42855797Y-37785714D01*
X42855799Y-37785714D01*
X43044892Y-37808262D01*
X43044895Y-37808262D01*
X43048735Y-37808720D01*
X43246320Y-37793517D01*
X43437190Y-37740225D01*
X43531858Y-37692405D01*
X43610619Y-37652620D01*
X43610621Y-37652619D01*
X43614073Y-37650875D01*
X43770232Y-37528870D01*
X43852507Y-37433554D01*
X43897196Y-37381782D01*
X43897200Y-37381777D01*
X43899720Y-37378857D01*
X43901626Y-37375501D01*
X43901630Y-37375496D01*
X43995695Y-37209910D01*
X43997604Y-37206550D01*
X44025539Y-37122574D01*
X44059105Y-37080224D01*
X44112040Y-37069357D01*
X44159576Y-37095060D01*
X44179500Y-37147510D01*
X44179500Y-38977106D01*
X44161018Y-39027886D01*
X44114218Y-39054906D01*
X44061000Y-39045522D01*
X44024872Y-38999939D01*
X44016031Y-38970654D01*
X44008774Y-38946619D01*
X44006963Y-38943214D01*
X44006961Y-38943208D01*
X43922274Y-38783936D01*
X43915739Y-38771646D01*
X43910414Y-38765116D01*
X43835495Y-38673258D01*
X43790490Y-38618076D01*
X43778415Y-38608086D01*
X43640773Y-38494219D01*
X43640772Y-38494218D01*
X43637798Y-38491758D01*
X43619979Y-38482123D01*
X43530152Y-38433554D01*
X43463479Y-38397504D01*
X43274172Y-38338904D01*
X43077089Y-38318190D01*
X43073243Y-38318540D01*
X43073242Y-38318540D01*
X43025487Y-38322886D01*
X42879735Y-38336150D01*
X42876028Y-38337241D01*
X42693338Y-38391010D01*
X42693335Y-38391011D01*
X42689629Y-38392102D01*
X42514010Y-38483913D01*
X42511003Y-38486331D01*
X42511001Y-38486332D01*
X42501192Y-38494219D01*
X42359570Y-38608086D01*
X42232189Y-38759893D01*
X42230327Y-38763281D01*
X42230325Y-38763283D01*
X42191693Y-38833554D01*
X42136720Y-38933550D01*
X42076800Y-39122443D01*
X42054710Y-39319377D01*
X42071292Y-39516851D01*
X42125915Y-39707344D01*
X42216498Y-39883599D01*
X42218894Y-39886622D01*
X42220991Y-39889876D01*
X42219349Y-39890934D01*
X42234266Y-39935770D01*
X42221259Y-39968626D01*
X42248277Y-39961890D01*
X42296847Y-39985580D01*
X42301930Y-39991387D01*
X42339590Y-40038902D01*
X42490504Y-40167340D01*
X42493878Y-40169226D01*
X42493880Y-40169227D01*
X42535737Y-40192620D01*
X42663490Y-40264019D01*
X42667152Y-40265209D01*
X42667157Y-40265211D01*
X42789241Y-40304878D01*
X42851960Y-40325256D01*
X42855797Y-40325714D01*
X42855799Y-40325714D01*
X43044892Y-40348262D01*
X43044895Y-40348262D01*
X43048735Y-40348720D01*
X43246320Y-40333517D01*
X43437190Y-40280225D01*
X43531858Y-40232405D01*
X43610619Y-40192620D01*
X43610621Y-40192619D01*
X43614073Y-40190875D01*
X43718923Y-40108957D01*
X43767190Y-40071247D01*
X43767192Y-40071245D01*
X43770232Y-40068870D01*
X43828941Y-40000855D01*
X43897196Y-39921782D01*
X43897200Y-39921777D01*
X43899720Y-39918857D01*
X43901626Y-39915501D01*
X43901630Y-39915496D01*
X43995695Y-39749910D01*
X43997604Y-39746550D01*
X44025539Y-39662574D01*
X44059105Y-39620224D01*
X44112040Y-39609357D01*
X44159576Y-39635060D01*
X44179500Y-39687510D01*
X44179500Y-41517106D01*
X44161018Y-41567886D01*
X44114218Y-41594906D01*
X44061000Y-41585522D01*
X44024872Y-41539939D01*
X44022943Y-41533548D01*
X44008774Y-41486619D01*
X44006963Y-41483214D01*
X44006961Y-41483208D01*
X43917551Y-41315054D01*
X43915739Y-41311646D01*
X43907866Y-41301992D01*
X43825450Y-41200941D01*
X43790490Y-41158076D01*
X43778415Y-41148086D01*
X43640773Y-41034219D01*
X43640772Y-41034218D01*
X43637798Y-41031758D01*
X43619979Y-41022123D01*
X43544404Y-40981260D01*
X43463479Y-40937504D01*
X43274172Y-40878904D01*
X43077089Y-40858190D01*
X43073243Y-40858540D01*
X43073242Y-40858540D01*
X43025487Y-40862886D01*
X42879735Y-40876150D01*
X42876028Y-40877241D01*
X42693338Y-40931010D01*
X42693335Y-40931011D01*
X42689629Y-40932102D01*
X42514010Y-41023913D01*
X42511003Y-41026331D01*
X42511001Y-41026332D01*
X42434207Y-41088076D01*
X42359570Y-41148086D01*
X42349955Y-41159545D01*
X42330018Y-41183305D01*
X42283219Y-41210325D01*
X42230000Y-41200941D01*
X42195264Y-41159545D01*
X42190500Y-41132525D01*
X42190500Y-40191929D01*
X42190608Y-40187794D01*
X42192412Y-40153381D01*
X42192412Y-40153379D01*
X42192846Y-40145092D01*
X42189871Y-40137341D01*
X42183538Y-40120842D01*
X42180017Y-40108957D01*
X42176342Y-40091670D01*
X42174616Y-40083548D01*
X42169736Y-40076832D01*
X42167847Y-40072588D01*
X42164079Y-40018681D01*
X42170624Y-40009673D01*
X42166840Y-40011719D01*
X42114646Y-40001007D01*
X42114521Y-40000835D01*
X42106675Y-39996305D01*
X42090315Y-39983750D01*
X40948259Y-38841695D01*
X40925421Y-38792719D01*
X40939407Y-38740521D01*
X40948259Y-38729973D01*
X40994433Y-38683799D01*
X41054905Y-38565116D01*
X41075742Y-38433554D01*
X41065734Y-38370365D01*
X41055878Y-38308133D01*
X41055877Y-38308131D01*
X41054905Y-38301992D01*
X40994433Y-38183309D01*
X40900245Y-38089121D01*
X40781562Y-38028649D01*
X40775423Y-38027677D01*
X40775421Y-38027676D01*
X40656143Y-38008785D01*
X40650000Y-38007812D01*
X40643857Y-38008785D01*
X40524579Y-38027676D01*
X40524577Y-38027677D01*
X40518438Y-38028649D01*
X40399755Y-38089121D01*
X40305567Y-38183309D01*
X40245095Y-38301992D01*
X40237552Y-38349616D01*
X40211355Y-38396877D01*
X40160906Y-38416244D01*
X40147172Y-38415283D01*
X40100000Y-38407812D01*
X40093857Y-38408785D01*
X39974579Y-38427676D01*
X39974577Y-38427677D01*
X39968438Y-38428649D01*
X39849755Y-38489121D01*
X39755567Y-38583309D01*
X39695095Y-38701992D01*
X39694123Y-38708131D01*
X39694122Y-38708133D01*
X39677883Y-38810665D01*
X39674258Y-38833554D01*
X39675231Y-38839697D01*
X39690096Y-38933550D01*
X39695095Y-38965116D01*
X39755567Y-39083799D01*
X39849755Y-39177987D01*
X39968438Y-39238459D01*
X39974577Y-39239431D01*
X39974579Y-39239432D01*
X40093857Y-39258323D01*
X40100000Y-39259296D01*
X40134163Y-39253885D01*
X40187208Y-39264197D01*
X40202380Y-39276052D01*
X41336361Y-40410033D01*
X41359199Y-40459009D01*
X41359500Y-40465894D01*
X41359500Y-43051214D01*
X41341018Y-43101994D01*
X41336361Y-43107075D01*
X41252380Y-43191056D01*
X41203404Y-43213894D01*
X41184165Y-43213223D01*
X41150000Y-43207812D01*
X41143857Y-43208785D01*
X41024579Y-43227676D01*
X41024577Y-43227677D01*
X41018438Y-43228649D01*
X40899755Y-43289121D01*
X40805567Y-43383309D01*
X40802745Y-43388848D01*
X40802744Y-43388849D01*
X40776423Y-43440507D01*
X40745095Y-43501992D01*
X40744123Y-43508131D01*
X40744122Y-43508133D01*
X40731295Y-43589121D01*
X40724258Y-43633554D01*
X40725231Y-43639697D01*
X40734088Y-43695617D01*
X40745095Y-43765116D01*
X40805567Y-43883799D01*
X40899755Y-43977987D01*
X40905294Y-43980809D01*
X40905295Y-43980810D01*
X40956953Y-44007131D01*
X41018438Y-44038459D01*
X41024577Y-44039431D01*
X41024579Y-44039432D01*
X41143857Y-44058323D01*
X41150000Y-44059296D01*
X41156143Y-44058323D01*
X41275421Y-44039432D01*
X41275423Y-44039431D01*
X41281562Y-44038459D01*
X41310748Y-44023588D01*
X41364384Y-44017003D01*
X41409705Y-44046435D01*
X41417002Y-44058113D01*
X41452741Y-44128254D01*
X41452743Y-44128257D01*
X41455567Y-44133799D01*
X41549755Y-44227987D01*
X41668438Y-44288459D01*
X41674577Y-44289431D01*
X41674579Y-44289432D01*
X41793857Y-44308323D01*
X41800000Y-44309296D01*
X41806143Y-44308323D01*
X41925421Y-44289432D01*
X41925423Y-44289431D01*
X41931562Y-44288459D01*
X41944643Y-44281794D01*
X41998280Y-44275209D01*
X42043601Y-44304641D01*
X42059016Y-44360990D01*
X42054710Y-44399377D01*
X42071292Y-44596851D01*
X42125915Y-44787344D01*
X42216498Y-44963599D01*
X42339590Y-45118902D01*
X42490504Y-45247340D01*
X42663490Y-45344019D01*
X42667152Y-45345209D01*
X42667157Y-45345211D01*
X42789241Y-45384878D01*
X42851960Y-45405256D01*
X42855797Y-45405714D01*
X42855799Y-45405714D01*
X43044892Y-45428262D01*
X43044895Y-45428262D01*
X43048735Y-45428720D01*
X43246320Y-45413517D01*
X43437190Y-45360225D01*
X43607780Y-45274054D01*
X43610619Y-45272620D01*
X43610621Y-45272619D01*
X43614073Y-45270875D01*
X43770232Y-45148870D01*
X43798707Y-45115881D01*
X43897196Y-45001782D01*
X43897200Y-45001777D01*
X43899720Y-44998857D01*
X43901626Y-44995501D01*
X43901630Y-44995496D01*
X43995695Y-44829910D01*
X43997604Y-44826550D01*
X44025539Y-44742574D01*
X44059105Y-44700224D01*
X44112040Y-44689357D01*
X44159576Y-44715060D01*
X44179500Y-44767510D01*
X44179500Y-46597106D01*
X44161018Y-46647886D01*
X44114218Y-46674906D01*
X44061000Y-46665522D01*
X44024872Y-46619939D01*
X44021505Y-46608785D01*
X44008774Y-46566619D01*
X44006963Y-46563214D01*
X44006961Y-46563208D01*
X43917551Y-46395054D01*
X43915739Y-46391646D01*
X43908919Y-46383283D01*
X43792930Y-46241068D01*
X43790490Y-46238076D01*
X43778415Y-46228086D01*
X43640773Y-46114219D01*
X43640772Y-46114218D01*
X43637798Y-46111758D01*
X43619979Y-46102123D01*
X43558780Y-46069033D01*
X43463479Y-46017504D01*
X43274172Y-45958904D01*
X43077089Y-45938190D01*
X43073243Y-45938540D01*
X43073242Y-45938540D01*
X43025487Y-45942886D01*
X42879735Y-45956150D01*
X42876028Y-45957241D01*
X42693338Y-46011010D01*
X42693335Y-46011011D01*
X42689629Y-46012102D01*
X42514010Y-46103913D01*
X42511003Y-46106331D01*
X42511001Y-46106332D01*
X42501192Y-46114219D01*
X42359570Y-46228086D01*
X42232189Y-46379893D01*
X42230327Y-46383281D01*
X42230325Y-46383283D01*
X42161995Y-46507575D01*
X42136720Y-46553550D01*
X42076800Y-46742443D01*
X42054710Y-46939377D01*
X42071292Y-47136851D01*
X42125915Y-47327344D01*
X42173768Y-47420454D01*
X42177721Y-47428146D01*
X42184494Y-47481759D01*
X42163318Y-47520118D01*
X40563521Y-49119915D01*
X40514545Y-49142753D01*
X40507660Y-49143054D01*
X39571340Y-49143054D01*
X39520560Y-49124572D01*
X39493540Y-49077772D01*
X39502924Y-49024554D01*
X39515479Y-49008193D01*
X39934552Y-48589121D01*
X40464140Y-48059533D01*
X40467140Y-48056685D01*
X40492744Y-48033631D01*
X40498915Y-48028075D01*
X40509481Y-48004344D01*
X40515396Y-47993451D01*
X40525021Y-47978630D01*
X40525022Y-47978629D01*
X40529543Y-47971666D01*
X40530960Y-47962718D01*
X40536816Y-47942950D01*
X40537121Y-47942264D01*
X40537121Y-47942263D01*
X40540500Y-47934674D01*
X40540500Y-47908698D01*
X40541473Y-47896340D01*
X40544237Y-47878890D01*
X40544237Y-47878888D01*
X40545536Y-47870686D01*
X40543192Y-47861937D01*
X40540500Y-47841492D01*
X40540500Y-47420454D01*
X40558982Y-47369674D01*
X40563639Y-47364593D01*
X40644433Y-47283799D01*
X40654434Y-47264172D01*
X40702083Y-47170654D01*
X40704905Y-47165116D01*
X40708077Y-47145092D01*
X40724769Y-47039697D01*
X40725742Y-47033554D01*
X40720560Y-47000835D01*
X40705878Y-46908133D01*
X40705877Y-46908131D01*
X40704905Y-46901992D01*
X40644433Y-46783309D01*
X40550245Y-46689121D01*
X40522347Y-46674906D01*
X40437100Y-46631471D01*
X40437101Y-46631471D01*
X40431562Y-46628649D01*
X40425423Y-46627677D01*
X40425421Y-46627676D01*
X40306143Y-46608785D01*
X40300000Y-46607812D01*
X40293857Y-46608785D01*
X40174579Y-46627676D01*
X40174577Y-46627677D01*
X40168438Y-46628649D01*
X40162899Y-46631471D01*
X40162900Y-46631471D01*
X40077654Y-46674906D01*
X40049755Y-46689121D01*
X39955567Y-46783309D01*
X39895095Y-46901992D01*
X39894123Y-46908131D01*
X39894122Y-46908133D01*
X39879440Y-47000835D01*
X39874258Y-47033554D01*
X39875231Y-47039697D01*
X39891924Y-47145092D01*
X39895095Y-47165116D01*
X39897917Y-47170654D01*
X39945567Y-47264172D01*
X39955567Y-47283799D01*
X40036361Y-47364593D01*
X40059199Y-47413569D01*
X40059500Y-47420454D01*
X40059500Y-47751213D01*
X40041018Y-47801993D01*
X40036361Y-47807074D01*
X39073521Y-48769915D01*
X39024545Y-48792753D01*
X39017660Y-48793054D01*
X38482340Y-48793054D01*
X38431560Y-48774572D01*
X38426479Y-48769915D01*
X38417997Y-48761433D01*
X38395159Y-48712457D01*
X38409145Y-48660259D01*
X38437993Y-48635182D01*
X38544705Y-48580810D01*
X38544706Y-48580809D01*
X38550245Y-48577987D01*
X38644433Y-48483799D01*
X38704905Y-48365116D01*
X38725742Y-48233554D01*
X38722117Y-48210665D01*
X38705878Y-48108133D01*
X38705877Y-48108131D01*
X38704905Y-48101992D01*
X38644433Y-47983309D01*
X38563639Y-47902515D01*
X38540801Y-47853539D01*
X38540500Y-47846654D01*
X38540500Y-47191921D01*
X38540608Y-47187786D01*
X38541796Y-47165116D01*
X38542846Y-47145092D01*
X38533535Y-47120836D01*
X38530019Y-47108967D01*
X38524616Y-47083548D01*
X38519294Y-47076224D01*
X38509449Y-47058091D01*
X38509181Y-47057392D01*
X38509180Y-47057391D01*
X38506206Y-47049642D01*
X38487842Y-47031278D01*
X38479795Y-47021858D01*
X38464521Y-47000835D01*
X38456671Y-46996303D01*
X38440314Y-46983750D01*
X33463639Y-42007075D01*
X33440801Y-41958099D01*
X33440500Y-41951214D01*
X33440500Y-41641921D01*
X33440608Y-41637786D01*
X33442411Y-41603381D01*
X33442846Y-41595092D01*
X33433535Y-41570836D01*
X33430019Y-41558967D01*
X33424616Y-41533548D01*
X33419294Y-41526224D01*
X33409449Y-41508091D01*
X33409181Y-41507392D01*
X33409180Y-41507391D01*
X33406206Y-41499642D01*
X33387842Y-41481278D01*
X33379795Y-41471858D01*
X33364521Y-41450835D01*
X33356671Y-41446303D01*
X33340314Y-41433750D01*
X32925988Y-41019424D01*
X32923140Y-41016424D01*
X32919760Y-41012670D01*
X32894521Y-40984639D01*
X32886935Y-40981262D01*
X32886933Y-40981260D01*
X32870794Y-40974075D01*
X32859900Y-40968160D01*
X32845079Y-40958535D01*
X32845076Y-40958534D01*
X32838113Y-40954012D01*
X32829663Y-40952673D01*
X32829168Y-40952595D01*
X32809397Y-40946739D01*
X32801120Y-40943054D01*
X32775143Y-40943054D01*
X32762785Y-40942081D01*
X32745336Y-40939317D01*
X32745334Y-40939317D01*
X32737132Y-40938018D01*
X32728513Y-40940328D01*
X32728384Y-40940362D01*
X32707937Y-40943054D01*
X32050896Y-40943054D01*
X32000116Y-40924572D01*
X31973096Y-40877772D01*
X31972868Y-40851697D01*
X31973573Y-40847246D01*
X31975742Y-40833554D01*
X31954905Y-40701992D01*
X31894433Y-40583309D01*
X31870039Y-40558915D01*
X31847201Y-40509939D01*
X31861187Y-40457741D01*
X31905453Y-40426746D01*
X31925900Y-40424054D01*
X35191625Y-40424054D01*
X35195760Y-40424162D01*
X35230172Y-40425966D01*
X35230174Y-40425966D01*
X35238462Y-40426400D01*
X35262718Y-40417089D01*
X35274587Y-40413573D01*
X35300006Y-40408170D01*
X35307330Y-40402848D01*
X35325463Y-40393003D01*
X35326162Y-40392735D01*
X35326163Y-40392734D01*
X35333912Y-40389760D01*
X35352276Y-40371396D01*
X35361696Y-40363349D01*
X35382719Y-40348075D01*
X35387251Y-40340225D01*
X35399804Y-40323868D01*
X36176479Y-39547193D01*
X36225455Y-39524355D01*
X36232340Y-39524054D01*
X38241625Y-39524054D01*
X38245760Y-39524162D01*
X38280172Y-39525966D01*
X38280174Y-39525966D01*
X38288462Y-39526400D01*
X38312718Y-39517089D01*
X38324587Y-39513573D01*
X38350006Y-39508170D01*
X38357330Y-39502848D01*
X38375463Y-39493003D01*
X38376162Y-39492735D01*
X38376163Y-39492734D01*
X38383912Y-39489760D01*
X38402276Y-39471396D01*
X38411696Y-39463349D01*
X38432719Y-39448075D01*
X38437251Y-39440225D01*
X38449804Y-39423868D01*
X39814130Y-38059542D01*
X39817130Y-38056694D01*
X39842743Y-38033632D01*
X39848915Y-38028075D01*
X39852293Y-38020487D01*
X39857172Y-38013772D01*
X39858709Y-38014889D01*
X39887624Y-37984418D01*
X39900245Y-37977987D01*
X39994433Y-37883799D01*
X40054905Y-37765116D01*
X40058848Y-37740225D01*
X40074769Y-37639697D01*
X40075742Y-37633554D01*
X40058535Y-37524912D01*
X40068846Y-37471866D01*
X40110842Y-37437858D01*
X40136562Y-37433554D01*
X40450000Y-37433554D01*
X41700000Y-36133554D01*
X41700000Y-35416276D01*
X41718482Y-35365496D01*
X41723139Y-35360415D01*
X41850000Y-35233554D01*
X41850000Y-35074548D01*
X42480774Y-35074548D01*
X42482112Y-35079542D01*
X42487844Y-35084421D01*
X42494166Y-35088815D01*
X42660324Y-35181677D01*
X42667358Y-35184751D01*
X42848394Y-35243572D01*
X42855907Y-35245224D01*
X43044903Y-35267760D01*
X43052604Y-35267921D01*
X43242381Y-35253319D01*
X43249952Y-35251985D01*
X43433293Y-35200794D01*
X43440454Y-35198016D01*
X43610350Y-35112196D01*
X43616852Y-35108070D01*
X43651566Y-35080949D01*
X43657585Y-35071317D01*
X43656946Y-35066774D01*
X43079851Y-34489679D01*
X43069557Y-34484879D01*
X43063263Y-34486565D01*
X42485574Y-35064254D01*
X42480774Y-35074548D01*
X41850000Y-35074548D01*
X41850000Y-34243230D01*
X42055535Y-34243230D01*
X42071463Y-34432915D01*
X42072850Y-34440470D01*
X42125318Y-34623449D01*
X42128146Y-34630591D01*
X42215157Y-34799896D01*
X42219316Y-34806350D01*
X42242328Y-34835384D01*
X42251999Y-34841333D01*
X42256631Y-34840649D01*
X42833875Y-34263405D01*
X42838675Y-34253111D01*
X42836989Y-34246817D01*
X42259675Y-33669503D01*
X42249381Y-33664703D01*
X42244485Y-33666015D01*
X42235089Y-33677213D01*
X42230741Y-33683563D01*
X42139043Y-33850360D01*
X42136012Y-33857432D01*
X42078459Y-34038866D01*
X42076861Y-34046382D01*
X42055642Y-34235550D01*
X42055535Y-34243230D01*
X41850000Y-34243230D01*
X41850000Y-33435283D01*
X42481991Y-33435283D01*
X42482722Y-33440002D01*
X43060149Y-34017429D01*
X43070443Y-34022229D01*
X43076737Y-34020543D01*
X43653710Y-33443570D01*
X43658510Y-33433276D01*
X43657224Y-33428477D01*
X43640493Y-33414636D01*
X43634120Y-33410338D01*
X43466680Y-33319803D01*
X43459599Y-33316826D01*
X43277765Y-33260540D01*
X43270224Y-33258992D01*
X43080928Y-33239096D01*
X43073238Y-33239042D01*
X42883678Y-33256293D01*
X42876122Y-33257734D01*
X42693526Y-33311475D01*
X42686389Y-33314359D01*
X42517714Y-33402541D01*
X42511270Y-33406757D01*
X42487875Y-33425567D01*
X42481991Y-33435283D01*
X41850000Y-33435283D01*
X41850000Y-31816276D01*
X41868482Y-31765496D01*
X41873139Y-31760415D01*
X41925030Y-31708524D01*
X41974006Y-31685686D01*
X42026204Y-31699672D01*
G37*
G04 #@! TD.AperFunction*
M02*
