M48
; DRILL file {KiCad (6.0.4)} date Mon May 16 01:26:17 2022
; FORMAT={-:-/ absolute / inch / decimal}
; #@! TF.CreationDate,2022-05-16T01:26:17+08:00
; #@! TF.GenerationSoftware,Kicad,Pcbnew,(6.0.4)
; #@! TF.FileFunction,MixedPlating,1,2
FMAT,2
INCH
; #@! TA.AperFunction,Plated,PTH,ViaDrill
T1C0.0118
; #@! TA.AperFunction,Plated,PTH,ComponentDrill
T2C0.0236
; #@! TA.AperFunction,Plated,PTH,ComponentDrill
T3C0.0276
; #@! TA.AperFunction,Plated,PTH,ComponentDrill
T4C0.0394
%
G90
G05
T1
X1.1201Y-1.7986
X1.1594Y-1.2572
X1.1594Y-1.836
X1.1594Y-1.8911
X1.1594Y-1.9462
X1.1594Y-2.0013
X1.1594Y-2.0564
X1.1772Y-1.0643
X1.1969Y-1.4009
X1.2146Y-1.7454
X1.2252Y-1.2273
X1.2283Y-1.6312
X1.2283Y-1.769
X1.2362Y-1.7297
X1.2421Y-1.6076
X1.2508Y-1.247
X1.2559Y-1.6745
X1.2642Y-1.5486
X1.2657Y-1.4501
X1.2697Y-1.6017
X1.2728Y-1.2693
X1.2736Y-1.6549
X1.2976Y-1.3043
X1.3169Y-1.8734
X1.3228Y-1.899
X1.3228Y-1.9265
X1.3228Y-1.9738
X1.328Y-1.2474
X1.3465Y-1.9108
X1.3657Y-1.249
X1.3661Y-1.9285
X1.3661Y-1.956
X1.3661Y-2.0112
X1.4055Y-1.249
X1.4106Y-1.4161
X1.4193Y-1.9285
X1.4213Y-1.5131
X1.4311Y-1.5663
X1.4331Y-2.0289
X1.4461Y-1.2281
X1.4469Y-1.521
X1.4665Y-1.9738
X1.4757Y-1.2686
X1.5079Y-1.899
X1.5161Y-1.2323
X1.5197Y-2.0112
X1.5315Y-1.9108
X1.5343Y-1.2996
X1.561Y-1.4816
X1.5787Y-1.5289
X1.5866Y-1.8517
X1.5866Y-2.0092
X1.5941Y-1.3965
X1.6004Y-1.5131
X1.6142Y-1.0643
X1.6181Y-1.6903
X1.6201Y-1.7179
X1.624Y-1.4836
X1.6276Y-1.302
X1.6323Y-1.3819
X1.6457Y-1.7277
T3
X1.3413Y-1.3055
X1.4413Y-1.3055
T4
X1.0957Y-1.0486
X1.0957Y-1.1486
X1.0957Y-1.2486
X1.0957Y-1.3486
X1.0957Y-1.4486
X1.0957Y-1.5486
X1.0957Y-1.6486
X1.0957Y-1.7486
X1.0957Y-1.8486
X1.0957Y-1.9486
X1.0957Y-2.0486
X1.0957Y-2.1486
X1.1957Y-2.1486
X1.2957Y-2.1486
X1.3957Y-2.1486
X1.4957Y-2.1486
X1.5957Y-2.1486
X1.6957Y-1.0486
X1.6957Y-1.1486
X1.6957Y-1.2486
X1.6957Y-1.3486
X1.6957Y-1.4486
X1.6957Y-1.5486
X1.6957Y-1.6486
X1.6957Y-1.7486
X1.6957Y-1.8486
X1.6957Y-1.9486
X1.6957Y-2.0486
X1.6957Y-2.1486
T2
G00X1.1762Y-1.0049
M15
G01X1.1762Y-0.9576
M16
G05
G00X1.1762Y-1.1545
M15
G01X1.1762Y-1.123
M16
G05
G00X1.2799Y-1.408
M15
G01X1.2799Y-1.3765
M16
G05
G00X1.5555Y-1.408
M15
G01X1.5555Y-1.3765
M16
G05
G00X1.6152Y-1.0049
M15
G01X1.6152Y-0.9576
M16
G05
G00X1.6152Y-1.1545
M15
G01X1.6152Y-1.123
M16
G05
T0
M30
