G04 #@! TF.GenerationSoftware,KiCad,Pcbnew,(6.0.4)*
G04 #@! TF.CreationDate,2022-05-16T01:26:14+08:00*
G04 #@! TF.ProjectId,whale,7768616c-652e-46b6-9963-61645f706362,0.1*
G04 #@! TF.SameCoordinates,Original*
G04 #@! TF.FileFunction,Soldermask,Bot*
G04 #@! TF.FilePolarity,Negative*
%FSLAX46Y46*%
G04 Gerber Fmt 4.6, Leading zero omitted, Abs format (unit mm)*
G04 Created by KiCad (PCBNEW (6.0.4)) date 2022-05-16 01:26:14*
%MOMM*%
%LPD*%
G01*
G04 APERTURE LIST*
G04 #@! TA.AperFunction,Profile*
%ADD10C,0.150000*%
G04 #@! TD*
%ADD11O,1.000000X1.800000*%
%ADD12O,1.000000X2.200000*%
%ADD13C,1.700000*%
%ADD14C,1.000000*%
G04 APERTURE END LIST*
D10*
X30830000Y-22823554D02*
X30830000Y-29343554D01*
X27830000Y-55843554D02*
X43070000Y-55843554D01*
X26559946Y-54573554D02*
G75*
G03*
X27830000Y-55843554I1270054J54D01*
G01*
X26560000Y-24093554D02*
X26560000Y-54573554D01*
X30830000Y-29343554D02*
X40080000Y-29343554D01*
X27830000Y-22823554D02*
X30830000Y-22823554D01*
X40070000Y-22823554D02*
X43070000Y-22823554D01*
X43070000Y-55843500D02*
G75*
G03*
X44340000Y-54573554I100J1269900D01*
G01*
X40080000Y-29343554D02*
X40070000Y-22823554D01*
X44339946Y-24093554D02*
G75*
G03*
X43070000Y-22823554I-1269946J54D01*
G01*
X44340000Y-54573554D02*
X44340000Y-24093554D01*
X27830000Y-22823550D02*
G75*
G03*
X26560000Y-24093554I80J-1270080D01*
G01*
D11*
X29875000Y-28923554D03*
X41025000Y-28923554D03*
D12*
X29875000Y-24923554D03*
X41025000Y-24923554D03*
D13*
X40530000Y-54573554D03*
X37990000Y-54573554D03*
X35450000Y-54573554D03*
X32910000Y-54573554D03*
X30370000Y-54573554D03*
D14*
X34070000Y-33160000D03*
X36610000Y-33160000D03*
D13*
X27830000Y-54573554D03*
X27830000Y-52033554D03*
X27830000Y-49493554D03*
X27830000Y-46953554D03*
X27830000Y-44413554D03*
X27830000Y-41873554D03*
X27830000Y-39333554D03*
X27830000Y-36793554D03*
X27830000Y-34253554D03*
X27830000Y-31713554D03*
X27830000Y-29173554D03*
X27830000Y-26633554D03*
X43070000Y-26633554D03*
X43070000Y-29173554D03*
X43070000Y-31713554D03*
X43070000Y-34253554D03*
X43070000Y-36793554D03*
X43070000Y-39333554D03*
X43070000Y-41873554D03*
X43070000Y-44413554D03*
X43070000Y-46953554D03*
X43070000Y-49493554D03*
X43070000Y-52033554D03*
X43070000Y-54573554D03*
D11*
X32510000Y-35363554D03*
X39510000Y-35363554D03*
M02*
