G04 #@! TF.GenerationSoftware,KiCad,Pcbnew,(6.0.4)*
G04 #@! TF.CreationDate,2022-05-16T01:26:14+08:00*
G04 #@! TF.ProjectId,whale,7768616c-652e-46b6-9963-61645f706362,0.1*
G04 #@! TF.SameCoordinates,Original*
G04 #@! TF.FileFunction,Paste,Top*
G04 #@! TF.FilePolarity,Positive*
%FSLAX46Y46*%
G04 Gerber Fmt 4.6, Leading zero omitted, Abs format (unit mm)*
G04 Created by KiCad (PCBNEW (6.0.4)) date 2022-05-16 01:26:14*
%MOMM*%
%LPD*%
G01*
G04 APERTURE LIST*
G04 Aperture macros list*
%AMRoundRect*
0 Rectangle with rounded corners*
0 $1 Rounding radius*
0 $2 $3 $4 $5 $6 $7 $8 $9 X,Y pos of 4 corners*
0 Add a 4 corners polygon primitive as box body*
4,1,4,$2,$3,$4,$5,$6,$7,$8,$9,$2,$3,0*
0 Add four circle primitives for the rounded corners*
1,1,$1+$1,$2,$3*
1,1,$1+$1,$4,$5*
1,1,$1+$1,$6,$7*
1,1,$1+$1,$8,$9*
0 Add four rect primitives between the rounded corners*
20,1,$1+$1,$2,$3,$4,$5,0*
20,1,$1+$1,$4,$5,$6,$7,0*
20,1,$1+$1,$6,$7,$8,$9,0*
20,1,$1+$1,$8,$9,$2,$3,0*%
%AMHorizOval*
0 Thick line with rounded ends*
0 $1 width*
0 $2 $3 position (X,Y) of the first rounded end (center of the circle)*
0 $4 $5 position (X,Y) of the second rounded end (center of the circle)*
0 Add line between two ends*
20,1,$1,$2,$3,$4,$5,0*
0 Add two circle primitives to create the rounded ends*
1,1,$1,$2,$3*
1,1,$1,$4,$5*%
%AMRotRect*
0 Rectangle, with rotation*
0 The origin of the aperture is its center*
0 $1 length*
0 $2 width*
0 $3 Rotation angle, in degrees counterclockwise*
0 Add horizontal line*
21,1,$1,$2,0,0,$3*%
G04 Aperture macros list end*
G04 #@! TA.AperFunction,Profile*
%ADD10C,0.150000*%
G04 #@! TD*
%ADD11RoundRect,0.147500X-0.147500X-0.172500X0.147500X-0.172500X0.147500X0.172500X-0.147500X0.172500X0*%
%ADD12RoundRect,0.147500X0.172500X-0.147500X0.172500X0.147500X-0.172500X0.147500X-0.172500X-0.147500X0*%
%ADD13R,1.200000X1.400000*%
%ADD14R,1.500000X2.400000*%
%ADD15R,1.500000X1.050000*%
%ADD16R,0.600000X1.150000*%
%ADD17R,0.300000X1.150000*%
%ADD18RotRect,0.830000X0.830000X315.000000*%
%ADD19HorizOval,0.300000X0.282843X-0.282843X-0.282843X0.282843X0*%
%ADD20HorizOval,0.300000X0.282843X0.282843X-0.282843X-0.282843X0*%
%ADD21RoundRect,0.147500X-0.172500X0.147500X-0.172500X-0.147500X0.172500X-0.147500X0.172500X0.147500X0*%
%ADD22RoundRect,0.147500X0.147500X0.172500X-0.147500X0.172500X-0.147500X-0.172500X0.147500X-0.172500X0*%
%ADD23RoundRect,0.135000X0.135000X0.185000X-0.135000X0.185000X-0.135000X-0.185000X0.135000X-0.185000X0*%
%ADD24RoundRect,0.218750X0.218750X0.256250X-0.218750X0.256250X-0.218750X-0.256250X0.218750X-0.256250X0*%
G04 APERTURE END LIST*
D10*
X30830000Y-22823554D02*
X30830000Y-29343554D01*
X27830000Y-55843554D02*
X43070000Y-55843554D01*
X26559946Y-54573554D02*
G75*
G03*
X27830000Y-55843554I1270054J54D01*
G01*
X26560000Y-24093554D02*
X26560000Y-54573554D01*
X30830000Y-29343554D02*
X40080000Y-29343554D01*
X27830000Y-22823554D02*
X30830000Y-22823554D01*
X40070000Y-22823554D02*
X43070000Y-22823554D01*
X43070000Y-55843500D02*
G75*
G03*
X44340000Y-54573554I100J1269900D01*
G01*
X40080000Y-29343554D02*
X40070000Y-22823554D01*
X44339946Y-24093554D02*
G75*
G03*
X43070000Y-22823554I-1269946J54D01*
G01*
X44340000Y-54573554D02*
X44340000Y-24093554D01*
X27830000Y-22823550D02*
G75*
G03*
X26560000Y-24093554I80J-1270080D01*
G01*
D11*
X30265000Y-47533554D03*
X31235000Y-47533554D03*
D12*
X33750000Y-51818554D03*
X33750000Y-50848554D03*
D13*
X32150000Y-51433554D03*
X32150000Y-49233554D03*
X30550000Y-49233554D03*
X30550000Y-51433554D03*
D12*
X34100000Y-37668554D03*
X34100000Y-36698554D03*
X35300000Y-38318554D03*
X35300000Y-37348554D03*
D11*
X30115000Y-34833554D03*
X31085000Y-34833554D03*
D12*
X32900000Y-37918554D03*
X32900000Y-36948554D03*
X37700000Y-38568554D03*
X37700000Y-37598554D03*
D14*
X30950000Y-38933554D03*
D15*
X30950000Y-36558554D03*
D12*
X32850000Y-40118554D03*
X32850000Y-39148554D03*
D11*
X40065000Y-36933554D03*
X41035000Y-36933554D03*
D16*
X38650000Y-30023554D03*
X32250000Y-30023554D03*
X33050000Y-30023554D03*
X37850000Y-30023554D03*
D17*
X36700000Y-30023554D03*
X35700000Y-30023554D03*
X35200000Y-30023554D03*
X34200000Y-30023554D03*
X33700000Y-30023554D03*
X34700000Y-30023554D03*
X36200000Y-30023554D03*
X37200000Y-30023554D03*
D11*
X30115000Y-32433554D03*
X31085000Y-32433554D03*
X30115000Y-33633554D03*
X31085000Y-33633554D03*
D18*
X34693360Y-42876914D03*
X35421680Y-43605234D03*
X39063280Y-44333554D03*
X33965040Y-43605234D03*
X36878320Y-43605234D03*
X38334960Y-43605234D03*
X36150000Y-47246834D03*
X36150000Y-42876914D03*
X33965040Y-45061874D03*
X37606640Y-44333554D03*
X36150000Y-44333554D03*
X37606640Y-42876914D03*
X34693360Y-44333554D03*
X35421680Y-46518514D03*
X35421680Y-45061874D03*
X38334960Y-45061874D03*
X37606640Y-45790194D03*
X36150000Y-41420274D03*
X34693360Y-45790194D03*
X36878320Y-46518514D03*
X36878320Y-45061874D03*
X36878320Y-42148594D03*
X36150000Y-45790194D03*
X35421680Y-42148594D03*
X33236720Y-44333554D03*
D19*
X35548959Y-40196979D03*
X35195406Y-40550533D03*
X34841852Y-40904086D03*
X34488299Y-41257640D03*
X34134746Y-41611193D03*
X33781192Y-41964746D03*
X33427639Y-42318300D03*
X33074086Y-42671853D03*
X32720532Y-43025406D03*
X32366979Y-43378960D03*
X32013425Y-43732513D03*
D20*
X32013425Y-44934595D03*
X32366979Y-45288148D03*
X32720532Y-45641702D03*
X33074086Y-45995255D03*
X33427639Y-46348808D03*
X33781192Y-46702362D03*
X34134746Y-47055915D03*
X34488299Y-47409468D03*
X34841852Y-47763022D03*
X35195406Y-48116575D03*
X35548959Y-48470129D03*
D19*
X36751041Y-48470129D03*
X37104594Y-48116575D03*
X37458148Y-47763022D03*
X37811701Y-47409468D03*
X38165254Y-47055915D03*
X38518808Y-46702362D03*
X38872361Y-46348808D03*
X39225914Y-45995255D03*
X39579468Y-45641702D03*
X39933021Y-45288148D03*
X40286575Y-44934595D03*
D20*
X40286575Y-43732513D03*
X39933021Y-43378960D03*
X39579468Y-43025406D03*
X39225914Y-42671853D03*
X38872361Y-42318300D03*
X38518808Y-41964746D03*
X38165254Y-41611193D03*
X37811701Y-41257640D03*
X37458148Y-40904086D03*
X37104594Y-40550533D03*
X36751041Y-40196979D03*
D12*
X36500000Y-37718554D03*
X36500000Y-36748554D03*
D21*
X40650000Y-40948554D03*
X40650000Y-41918554D03*
X38000000Y-49398554D03*
X38000000Y-50368554D03*
D22*
X31235000Y-46333554D03*
X30265000Y-46333554D03*
D12*
X38900000Y-38368554D03*
X38900000Y-37398554D03*
D23*
X41230000Y-33860000D03*
X40210000Y-33860000D03*
D24*
X41087500Y-31980000D03*
X39512500Y-31980000D03*
M02*
