G04 #@! TF.GenerationSoftware,KiCad,Pcbnew,(6.0.4)*
G04 #@! TF.CreationDate,2022-05-16T01:26:14+08:00*
G04 #@! TF.ProjectId,whale,7768616c-652e-46b6-9963-61645f706362,0.1*
G04 #@! TF.SameCoordinates,Original*
G04 #@! TF.FileFunction,Legend,Top*
G04 #@! TF.FilePolarity,Positive*
%FSLAX46Y46*%
G04 Gerber Fmt 4.6, Leading zero omitted, Abs format (unit mm)*
G04 Created by KiCad (PCBNEW (6.0.4)) date 2022-05-16 01:26:14*
%MOMM*%
%LPD*%
G01*
G04 APERTURE LIST*
G04 #@! TA.AperFunction,Profile*
%ADD10C,0.150000*%
G04 #@! TD*
%ADD11C,0.125000*%
%ADD12C,0.150000*%
%ADD13C,0.120000*%
G04 APERTURE END LIST*
D10*
X30830000Y-22823554D02*
X30830000Y-29343554D01*
X27830000Y-55843554D02*
X43070000Y-55843554D01*
X26559946Y-54573554D02*
G75*
G03*
X27830000Y-55843554I1270054J54D01*
G01*
X26560000Y-24093554D02*
X26560000Y-54573554D01*
X30830000Y-29343554D02*
X40080000Y-29343554D01*
X27830000Y-22823554D02*
X30830000Y-22823554D01*
X40070000Y-22823554D02*
X43070000Y-22823554D01*
X43070000Y-55843500D02*
G75*
G03*
X44340000Y-54573554I100J1269900D01*
G01*
X40080000Y-29343554D02*
X40070000Y-22823554D01*
X44339946Y-24093554D02*
G75*
G03*
X43070000Y-22823554I-1269946J54D01*
G01*
X44340000Y-54573554D02*
X44340000Y-24093554D01*
X27830000Y-22823550D02*
G75*
G03*
X26560000Y-24093554I80J-1270080D01*
G01*
D11*
X31946666Y-52700220D02*
X32113333Y-53400220D01*
X32246666Y-52900220D01*
X32380000Y-53400220D01*
X32546666Y-52700220D01*
X32813333Y-53400220D02*
X32813333Y-52700220D01*
X33113333Y-53400220D02*
X33113333Y-53033554D01*
X33080000Y-52966887D01*
X33013333Y-52933554D01*
X32913333Y-52933554D01*
X32846666Y-52966887D01*
X32813333Y-53000220D01*
X33746666Y-53400220D02*
X33746666Y-53033554D01*
X33713333Y-52966887D01*
X33646666Y-52933554D01*
X33513333Y-52933554D01*
X33446666Y-52966887D01*
X33746666Y-53366887D02*
X33680000Y-53400220D01*
X33513333Y-53400220D01*
X33446666Y-53366887D01*
X33413333Y-53300220D01*
X33413333Y-53233554D01*
X33446666Y-53166887D01*
X33513333Y-53133554D01*
X33680000Y-53133554D01*
X33746666Y-53100220D01*
X34180000Y-53400220D02*
X34113333Y-53366887D01*
X34080000Y-53300220D01*
X34080000Y-52700220D01*
X34713333Y-53366887D02*
X34646666Y-53400220D01*
X34513333Y-53400220D01*
X34446666Y-53366887D01*
X34413333Y-53300220D01*
X34413333Y-53033554D01*
X34446666Y-52966887D01*
X34513333Y-52933554D01*
X34646666Y-52933554D01*
X34713333Y-52966887D01*
X34746666Y-53033554D01*
X34746666Y-53100220D01*
X34413333Y-53166887D01*
X35580000Y-53400220D02*
X35580000Y-52700220D01*
X35846666Y-52700220D01*
X35913333Y-52733554D01*
X35946666Y-52766887D01*
X35980000Y-52833554D01*
X35980000Y-52933554D01*
X35946666Y-53000220D01*
X35913333Y-53033554D01*
X35846666Y-53066887D01*
X35580000Y-53066887D01*
X36280000Y-53400220D02*
X36280000Y-52933554D01*
X36280000Y-53066887D02*
X36313333Y-53000220D01*
X36346666Y-52966887D01*
X36413333Y-52933554D01*
X36480000Y-52933554D01*
X36813333Y-53400220D02*
X36746666Y-53366887D01*
X36713333Y-53333554D01*
X36680000Y-53266887D01*
X36680000Y-53066887D01*
X36713333Y-53000220D01*
X36746666Y-52966887D01*
X36813333Y-52933554D01*
X36913333Y-52933554D01*
X36980000Y-52966887D01*
X37013333Y-53000220D01*
X37046666Y-53066887D01*
X37046666Y-53266887D01*
X37013333Y-53333554D01*
X36980000Y-53366887D01*
X36913333Y-53400220D01*
X36813333Y-53400220D01*
X37880000Y-53400220D02*
X37880000Y-52700220D01*
X38113333Y-53200220D01*
X38346666Y-52700220D01*
X38346666Y-53400220D01*
X38680000Y-53400220D02*
X38680000Y-52933554D01*
X38680000Y-52700220D02*
X38646666Y-52733554D01*
X38680000Y-52766887D01*
X38713333Y-52733554D01*
X38680000Y-52700220D01*
X38680000Y-52766887D01*
X39313333Y-53366887D02*
X39246666Y-53400220D01*
X39113333Y-53400220D01*
X39046666Y-53366887D01*
X39013333Y-53333554D01*
X38980000Y-53266887D01*
X38980000Y-53066887D01*
X39013333Y-53000220D01*
X39046666Y-52966887D01*
X39113333Y-52933554D01*
X39246666Y-52933554D01*
X39313333Y-52966887D01*
X39613333Y-53400220D02*
X39613333Y-52933554D01*
X39613333Y-53066887D02*
X39646666Y-53000220D01*
X39680000Y-52966887D01*
X39746666Y-52933554D01*
X39813333Y-52933554D01*
X40146666Y-53400220D02*
X40080000Y-53366887D01*
X40046666Y-53333554D01*
X40013333Y-53266887D01*
X40013333Y-53066887D01*
X40046666Y-53000220D01*
X40080000Y-52966887D01*
X40146666Y-52933554D01*
X40246666Y-52933554D01*
X40313333Y-52966887D01*
X40346666Y-53000220D01*
X40380000Y-53066887D01*
X40380000Y-53266887D01*
X40346666Y-53333554D01*
X40313333Y-53366887D01*
X40246666Y-53400220D01*
X40146666Y-53400220D01*
X29356666Y-47752125D02*
X29332857Y-47775934D01*
X29261428Y-47799744D01*
X29213809Y-47799744D01*
X29142380Y-47775934D01*
X29094761Y-47728315D01*
X29070952Y-47680696D01*
X29047142Y-47585458D01*
X29047142Y-47514030D01*
X29070952Y-47418792D01*
X29094761Y-47371173D01*
X29142380Y-47323554D01*
X29213809Y-47299744D01*
X29261428Y-47299744D01*
X29332857Y-47323554D01*
X29356666Y-47347363D01*
X29642380Y-47514030D02*
X29594761Y-47490220D01*
X29570952Y-47466411D01*
X29547142Y-47418792D01*
X29547142Y-47394982D01*
X29570952Y-47347363D01*
X29594761Y-47323554D01*
X29642380Y-47299744D01*
X29737619Y-47299744D01*
X29785238Y-47323554D01*
X29809047Y-47347363D01*
X29832857Y-47394982D01*
X29832857Y-47418792D01*
X29809047Y-47466411D01*
X29785238Y-47490220D01*
X29737619Y-47514030D01*
X29642380Y-47514030D01*
X29594761Y-47537839D01*
X29570952Y-47561649D01*
X29547142Y-47609268D01*
X29547142Y-47704506D01*
X29570952Y-47752125D01*
X29594761Y-47775934D01*
X29642380Y-47799744D01*
X29737619Y-47799744D01*
X29785238Y-47775934D01*
X29809047Y-47752125D01*
X29832857Y-47704506D01*
X29832857Y-47609268D01*
X29809047Y-47561649D01*
X29785238Y-47537839D01*
X29737619Y-47514030D01*
X34678571Y-51386887D02*
X34702380Y-51410696D01*
X34726190Y-51482125D01*
X34726190Y-51529744D01*
X34702380Y-51601173D01*
X34654761Y-51648792D01*
X34607142Y-51672601D01*
X34511904Y-51696411D01*
X34440476Y-51696411D01*
X34345238Y-51672601D01*
X34297619Y-51648792D01*
X34250000Y-51601173D01*
X34226190Y-51529744D01*
X34226190Y-51482125D01*
X34250000Y-51410696D01*
X34273809Y-51386887D01*
X34226190Y-51220220D02*
X34226190Y-50886887D01*
X34726190Y-51101173D01*
X28955238Y-49876190D02*
X29288571Y-50376190D01*
X29288571Y-49876190D02*
X28955238Y-50376190D01*
X29740952Y-50376190D02*
X29455238Y-50376190D01*
X29598095Y-50376190D02*
X29598095Y-49876190D01*
X29550476Y-49947619D01*
X29502857Y-49995238D01*
X29455238Y-50019047D01*
X34386190Y-35836887D02*
X34148095Y-36003554D01*
X34386190Y-36122601D02*
X33886190Y-36122601D01*
X33886190Y-35932125D01*
X33910000Y-35884506D01*
X33933809Y-35860696D01*
X33981428Y-35836887D01*
X34052857Y-35836887D01*
X34100476Y-35860696D01*
X34124285Y-35884506D01*
X34148095Y-35932125D01*
X34148095Y-36122601D01*
X34052857Y-35408315D02*
X34386190Y-35408315D01*
X33862380Y-35527363D02*
X34219523Y-35646411D01*
X34219523Y-35336887D01*
X35536190Y-36346887D02*
X35298095Y-36513554D01*
X35536190Y-36632601D02*
X35036190Y-36632601D01*
X35036190Y-36442125D01*
X35060000Y-36394506D01*
X35083809Y-36370696D01*
X35131428Y-36346887D01*
X35202857Y-36346887D01*
X35250476Y-36370696D01*
X35274285Y-36394506D01*
X35298095Y-36442125D01*
X35298095Y-36632601D01*
X35036190Y-35894506D02*
X35036190Y-36132601D01*
X35274285Y-36156411D01*
X35250476Y-36132601D01*
X35226666Y-36084982D01*
X35226666Y-35965934D01*
X35250476Y-35918315D01*
X35274285Y-35894506D01*
X35321904Y-35870696D01*
X35440952Y-35870696D01*
X35488571Y-35894506D01*
X35512380Y-35918315D01*
X35536190Y-35965934D01*
X35536190Y-36084982D01*
X35512380Y-36132601D01*
X35488571Y-36156411D01*
X29146666Y-35059744D02*
X28980000Y-34821649D01*
X28860952Y-35059744D02*
X28860952Y-34559744D01*
X29051428Y-34559744D01*
X29099047Y-34583554D01*
X29122857Y-34607363D01*
X29146666Y-34654982D01*
X29146666Y-34726411D01*
X29122857Y-34774030D01*
X29099047Y-34797839D01*
X29051428Y-34821649D01*
X28860952Y-34821649D01*
X29575238Y-34559744D02*
X29480000Y-34559744D01*
X29432380Y-34583554D01*
X29408571Y-34607363D01*
X29360952Y-34678792D01*
X29337142Y-34774030D01*
X29337142Y-34964506D01*
X29360952Y-35012125D01*
X29384761Y-35035934D01*
X29432380Y-35059744D01*
X29527619Y-35059744D01*
X29575238Y-35035934D01*
X29599047Y-35012125D01*
X29622857Y-34964506D01*
X29622857Y-34845458D01*
X29599047Y-34797839D01*
X29575238Y-34774030D01*
X29527619Y-34750220D01*
X29432380Y-34750220D01*
X29384761Y-34774030D01*
X29360952Y-34797839D01*
X29337142Y-34845458D01*
X33868571Y-38636887D02*
X33892380Y-38660696D01*
X33916190Y-38732125D01*
X33916190Y-38779744D01*
X33892380Y-38851173D01*
X33844761Y-38898792D01*
X33797142Y-38922601D01*
X33701904Y-38946411D01*
X33630476Y-38946411D01*
X33535238Y-38922601D01*
X33487619Y-38898792D01*
X33440000Y-38851173D01*
X33416190Y-38779744D01*
X33416190Y-38732125D01*
X33440000Y-38660696D01*
X33463809Y-38636887D01*
X33916190Y-38398792D02*
X33916190Y-38303554D01*
X33892380Y-38255934D01*
X33868571Y-38232125D01*
X33797142Y-38184506D01*
X33701904Y-38160696D01*
X33511428Y-38160696D01*
X33463809Y-38184506D01*
X33440000Y-38208315D01*
X33416190Y-38255934D01*
X33416190Y-38351173D01*
X33440000Y-38398792D01*
X33463809Y-38422601D01*
X33511428Y-38446411D01*
X33630476Y-38446411D01*
X33678095Y-38422601D01*
X33701904Y-38398792D01*
X33725714Y-38351173D01*
X33725714Y-38255934D01*
X33701904Y-38208315D01*
X33678095Y-38184506D01*
X33630476Y-38160696D01*
X37888571Y-36596887D02*
X37912380Y-36620696D01*
X37936190Y-36692125D01*
X37936190Y-36739744D01*
X37912380Y-36811173D01*
X37864761Y-36858792D01*
X37817142Y-36882601D01*
X37721904Y-36906411D01*
X37650476Y-36906411D01*
X37555238Y-36882601D01*
X37507619Y-36858792D01*
X37460000Y-36811173D01*
X37436190Y-36739744D01*
X37436190Y-36692125D01*
X37460000Y-36620696D01*
X37483809Y-36596887D01*
X37602857Y-36168315D02*
X37936190Y-36168315D01*
X37412380Y-36287363D02*
X37769523Y-36406411D01*
X37769523Y-36096887D01*
D12*
X29661904Y-38674030D02*
X28861904Y-38674030D01*
X28861904Y-38483554D01*
X28900000Y-38369268D01*
X28976190Y-38293077D01*
X29052380Y-38254982D01*
X29204761Y-38216887D01*
X29319047Y-38216887D01*
X29471428Y-38254982D01*
X29547619Y-38293077D01*
X29623809Y-38369268D01*
X29661904Y-38483554D01*
X29661904Y-38674030D01*
X29661904Y-37454982D02*
X29661904Y-37912125D01*
X29661904Y-37683554D02*
X28861904Y-37683554D01*
X28976190Y-37759744D01*
X29052380Y-37835934D01*
X29090476Y-37912125D01*
D11*
X33838571Y-39986887D02*
X33862380Y-40010696D01*
X33886190Y-40082125D01*
X33886190Y-40129744D01*
X33862380Y-40201173D01*
X33814761Y-40248792D01*
X33767142Y-40272601D01*
X33671904Y-40296411D01*
X33600476Y-40296411D01*
X33505238Y-40272601D01*
X33457619Y-40248792D01*
X33410000Y-40201173D01*
X33386190Y-40129744D01*
X33386190Y-40082125D01*
X33410000Y-40010696D01*
X33433809Y-39986887D01*
X33386190Y-39558315D02*
X33386190Y-39653554D01*
X33410000Y-39701173D01*
X33433809Y-39724982D01*
X33505238Y-39772601D01*
X33600476Y-39796411D01*
X33790952Y-39796411D01*
X33838571Y-39772601D01*
X33862380Y-39748792D01*
X33886190Y-39701173D01*
X33886190Y-39605934D01*
X33862380Y-39558315D01*
X33838571Y-39534506D01*
X33790952Y-39510696D01*
X33671904Y-39510696D01*
X33624285Y-39534506D01*
X33600476Y-39558315D01*
X33576666Y-39605934D01*
X33576666Y-39701173D01*
X33600476Y-39748792D01*
X33624285Y-39772601D01*
X33671904Y-39796411D01*
X40736666Y-36349744D02*
X40570000Y-36111649D01*
X40450952Y-36349744D02*
X40450952Y-35849744D01*
X40641428Y-35849744D01*
X40689047Y-35873554D01*
X40712857Y-35897363D01*
X40736666Y-35944982D01*
X40736666Y-36016411D01*
X40712857Y-36064030D01*
X40689047Y-36087839D01*
X40641428Y-36111649D01*
X40450952Y-36111649D01*
X40903333Y-35849744D02*
X41212857Y-35849744D01*
X41046190Y-36040220D01*
X41117619Y-36040220D01*
X41165238Y-36064030D01*
X41189047Y-36087839D01*
X41212857Y-36135458D01*
X41212857Y-36254506D01*
X41189047Y-36302125D01*
X41165238Y-36325934D01*
X41117619Y-36349744D01*
X40974761Y-36349744D01*
X40927142Y-36325934D01*
X40903333Y-36302125D01*
D12*
X35116666Y-31525934D02*
X35116666Y-32240220D01*
X35069047Y-32383077D01*
X34973809Y-32478315D01*
X34830952Y-32525934D01*
X34735714Y-32525934D01*
X36116666Y-32525934D02*
X35545238Y-32525934D01*
X35830952Y-32525934D02*
X35830952Y-31525934D01*
X35735714Y-31668792D01*
X35640476Y-31764030D01*
X35545238Y-31811649D01*
D11*
X29126666Y-32649744D02*
X28960000Y-32411649D01*
X28840952Y-32649744D02*
X28840952Y-32149744D01*
X29031428Y-32149744D01*
X29079047Y-32173554D01*
X29102857Y-32197363D01*
X29126666Y-32244982D01*
X29126666Y-32316411D01*
X29102857Y-32364030D01*
X29079047Y-32387839D01*
X29031428Y-32411649D01*
X28840952Y-32411649D01*
X29317142Y-32197363D02*
X29340952Y-32173554D01*
X29388571Y-32149744D01*
X29507619Y-32149744D01*
X29555238Y-32173554D01*
X29579047Y-32197363D01*
X29602857Y-32244982D01*
X29602857Y-32292601D01*
X29579047Y-32364030D01*
X29293333Y-32649744D01*
X29602857Y-32649744D01*
X29126666Y-33849744D02*
X28960000Y-33611649D01*
X28840952Y-33849744D02*
X28840952Y-33349744D01*
X29031428Y-33349744D01*
X29079047Y-33373554D01*
X29102857Y-33397363D01*
X29126666Y-33444982D01*
X29126666Y-33516411D01*
X29102857Y-33564030D01*
X29079047Y-33587839D01*
X29031428Y-33611649D01*
X28840952Y-33611649D01*
X29602857Y-33849744D02*
X29317142Y-33849744D01*
X29460000Y-33849744D02*
X29460000Y-33349744D01*
X29412380Y-33421173D01*
X29364761Y-33468792D01*
X29317142Y-33492601D01*
X40967013Y-45109315D02*
X41253223Y-45395525D01*
X41303730Y-45412361D01*
X41337402Y-45412361D01*
X41387910Y-45395525D01*
X41455253Y-45328181D01*
X41472089Y-45277674D01*
X41472089Y-45244002D01*
X41455253Y-45193494D01*
X41169043Y-44907284D01*
X41876150Y-44907284D02*
X41674120Y-45109315D01*
X41775135Y-45008300D02*
X41421582Y-44654746D01*
X41438417Y-44738926D01*
X41438417Y-44806269D01*
X41421582Y-44856777D01*
X36668571Y-35826887D02*
X36692380Y-35850696D01*
X36716190Y-35922125D01*
X36716190Y-35969744D01*
X36692380Y-36041173D01*
X36644761Y-36088792D01*
X36597142Y-36112601D01*
X36501904Y-36136411D01*
X36430476Y-36136411D01*
X36335238Y-36112601D01*
X36287619Y-36088792D01*
X36240000Y-36041173D01*
X36216190Y-35969744D01*
X36216190Y-35922125D01*
X36240000Y-35850696D01*
X36263809Y-35826887D01*
X36216190Y-35374506D02*
X36216190Y-35612601D01*
X36454285Y-35636411D01*
X36430476Y-35612601D01*
X36406666Y-35564982D01*
X36406666Y-35445934D01*
X36430476Y-35398315D01*
X36454285Y-35374506D01*
X36501904Y-35350696D01*
X36620952Y-35350696D01*
X36668571Y-35374506D01*
X36692380Y-35398315D01*
X36716190Y-35445934D01*
X36716190Y-35564982D01*
X36692380Y-35612601D01*
X36668571Y-35636411D01*
X40818571Y-39946887D02*
X40842380Y-39970696D01*
X40866190Y-40042125D01*
X40866190Y-40089744D01*
X40842380Y-40161173D01*
X40794761Y-40208792D01*
X40747142Y-40232601D01*
X40651904Y-40256411D01*
X40580476Y-40256411D01*
X40485238Y-40232601D01*
X40437619Y-40208792D01*
X40390000Y-40161173D01*
X40366190Y-40089744D01*
X40366190Y-40042125D01*
X40390000Y-39970696D01*
X40413809Y-39946887D01*
X40366190Y-39780220D02*
X40366190Y-39470696D01*
X40556666Y-39637363D01*
X40556666Y-39565934D01*
X40580476Y-39518315D01*
X40604285Y-39494506D01*
X40651904Y-39470696D01*
X40770952Y-39470696D01*
X40818571Y-39494506D01*
X40842380Y-39518315D01*
X40866190Y-39565934D01*
X40866190Y-39708792D01*
X40842380Y-39756411D01*
X40818571Y-39780220D01*
X39028571Y-49936887D02*
X39052380Y-49960696D01*
X39076190Y-50032125D01*
X39076190Y-50079744D01*
X39052380Y-50151173D01*
X39004761Y-50198792D01*
X38957142Y-50222601D01*
X38861904Y-50246411D01*
X38790476Y-50246411D01*
X38695238Y-50222601D01*
X38647619Y-50198792D01*
X38600000Y-50151173D01*
X38576190Y-50079744D01*
X38576190Y-50032125D01*
X38600000Y-49960696D01*
X38623809Y-49936887D01*
X38623809Y-49746411D02*
X38600000Y-49722601D01*
X38576190Y-49674982D01*
X38576190Y-49555934D01*
X38600000Y-49508315D01*
X38623809Y-49484506D01*
X38671428Y-49460696D01*
X38719047Y-49460696D01*
X38790476Y-49484506D01*
X39076190Y-49770220D01*
X39076190Y-49460696D01*
X29356666Y-46462125D02*
X29332857Y-46485934D01*
X29261428Y-46509744D01*
X29213809Y-46509744D01*
X29142380Y-46485934D01*
X29094761Y-46438315D01*
X29070952Y-46390696D01*
X29047142Y-46295458D01*
X29047142Y-46224030D01*
X29070952Y-46128792D01*
X29094761Y-46081173D01*
X29142380Y-46033554D01*
X29213809Y-46009744D01*
X29261428Y-46009744D01*
X29332857Y-46033554D01*
X29356666Y-46057363D01*
X29832857Y-46509744D02*
X29547142Y-46509744D01*
X29690000Y-46509744D02*
X29690000Y-46009744D01*
X29642380Y-46081173D01*
X29594761Y-46128792D01*
X29547142Y-46152601D01*
X38768571Y-36494982D02*
X38792380Y-36518792D01*
X38816190Y-36590220D01*
X38816190Y-36637839D01*
X38792380Y-36709268D01*
X38744761Y-36756887D01*
X38697142Y-36780696D01*
X38601904Y-36804506D01*
X38530476Y-36804506D01*
X38435238Y-36780696D01*
X38387619Y-36756887D01*
X38340000Y-36709268D01*
X38316190Y-36637839D01*
X38316190Y-36590220D01*
X38340000Y-36518792D01*
X38363809Y-36494982D01*
X38816190Y-36018792D02*
X38816190Y-36304506D01*
X38816190Y-36161649D02*
X38316190Y-36161649D01*
X38387619Y-36209268D01*
X38435238Y-36256887D01*
X38459047Y-36304506D01*
X38316190Y-35709268D02*
X38316190Y-35661649D01*
X38340000Y-35614030D01*
X38363809Y-35590220D01*
X38411428Y-35566411D01*
X38506666Y-35542601D01*
X38625714Y-35542601D01*
X38720952Y-35566411D01*
X38768571Y-35590220D01*
X38792380Y-35614030D01*
X38816190Y-35661649D01*
X38816190Y-35709268D01*
X38792380Y-35756887D01*
X38768571Y-35780696D01*
X38720952Y-35804506D01*
X38625714Y-35828315D01*
X38506666Y-35828315D01*
X38411428Y-35804506D01*
X38363809Y-35780696D01*
X38340000Y-35756887D01*
X38316190Y-35709268D01*
D12*
D11*
X40566666Y-34926190D02*
X40400000Y-34688095D01*
X40280952Y-34926190D02*
X40280952Y-34426190D01*
X40471428Y-34426190D01*
X40519047Y-34450000D01*
X40542857Y-34473809D01*
X40566666Y-34521428D01*
X40566666Y-34592857D01*
X40542857Y-34640476D01*
X40519047Y-34664285D01*
X40471428Y-34688095D01*
X40280952Y-34688095D01*
X40733333Y-34426190D02*
X41066666Y-34426190D01*
X40852380Y-34926190D01*
X40070952Y-31026190D02*
X40070952Y-30526190D01*
X40190000Y-30526190D01*
X40261428Y-30550000D01*
X40309047Y-30597619D01*
X40332857Y-30645238D01*
X40356666Y-30740476D01*
X40356666Y-30811904D01*
X40332857Y-30907142D01*
X40309047Y-30954761D01*
X40261428Y-31002380D01*
X40190000Y-31026190D01*
X40070952Y-31026190D01*
X40547142Y-30573809D02*
X40570952Y-30550000D01*
X40618571Y-30526190D01*
X40737619Y-30526190D01*
X40785238Y-30550000D01*
X40809047Y-30573809D01*
X40832857Y-30621428D01*
X40832857Y-30669047D01*
X40809047Y-30740476D01*
X40523333Y-31026190D01*
X40832857Y-31026190D01*
D12*
D13*
X32950000Y-52333554D02*
X32950000Y-48333554D01*
X29750000Y-52333554D02*
X32950000Y-52333554D01*
X29950000Y-37083554D02*
X29950000Y-40283554D01*
X31950000Y-40283554D02*
X31950000Y-37083554D01*
X31950000Y-40283554D02*
X29950000Y-40283554D01*
X36150000Y-49453007D02*
X35676238Y-48979246D01*
X36150000Y-39214101D02*
X36623762Y-39687862D01*
X41269453Y-44333554D02*
X40795692Y-43859792D01*
X41269453Y-44333554D02*
X40795692Y-44807316D01*
X31030547Y-44333554D02*
X31504308Y-43859792D01*
X36150000Y-49453007D02*
X36623762Y-48979246D01*
X31030547Y-44333554D02*
X31504308Y-44807316D01*
X40873641Y-34240000D02*
X40566359Y-34240000D01*
X40873641Y-33480000D02*
X40566359Y-33480000D01*
X41785000Y-32715000D02*
X41785000Y-31245000D01*
X41785000Y-31245000D02*
X39500000Y-31245000D01*
X39500000Y-32715000D02*
X41785000Y-32715000D01*
M02*
